<mxfile host="65bd71144e">
    <diagram id="Q0Bqb7_0KAcd7Om0uFCT" name="Page-1">
        <mxGraphModel dx="1355" dy="577" grid="1" gridSize="10" guides="1" tooltips="1" connect="1" arrows="1" fold="1" page="1" pageScale="1" pageWidth="827" pageHeight="1169" math="0" shadow="0">
            <root>
                <mxCell id="0"/>
                <mxCell id="1" parent="0"/>
                <mxCell id="170" value="" style="edgeStyle=none;html=1;" edge="1" parent="1" source="160">
                    <mxGeometry relative="1" as="geometry">
                        <mxPoint x="349.2977272727271" y="55" as="targetPoint"/>
                    </mxGeometry>
                </mxCell>
                <mxCell id="160" value="ElsterBot" style="text;strokeColor=none;fillColor=none;html=1;fontSize=24;fontStyle=1;verticalAlign=middle;align=center;" parent="1" vertex="1">
                    <mxGeometry x="327" y="10" width="100" height="40" as="geometry"/>
                </mxCell>
                <mxCell id="162" value="" style="sketch=0;outlineConnect=0;fontColor=#232F3E;gradientColor=none;fillColor=#BF0816;strokeColor=none;dashed=0;verticalLabelPosition=bottom;verticalAlign=top;align=center;html=1;fontSize=12;fontStyle=0;aspect=fixed;pointerEvents=1;shape=mxgraph.aws4.waf_bot;" parent="1" vertex="1">
                    <mxGeometry x="660" y="100" width="34" height="34" as="geometry"/>
                </mxCell>
                <mxCell id="165" value="" style="html=1;verticalLabelPosition=bottom;align=center;labelBackgroundColor=#ffffff;verticalAlign=top;strokeWidth=2;strokeColor=#0080F0;shadow=0;dashed=0;shape=mxgraph.ios7.icons.user;" parent="1" vertex="1">
                    <mxGeometry x="397" y="260" width="30" height="30" as="geometry"/>
                </mxCell>
                <mxCell id="166" value="" style="html=1;verticalLabelPosition=bottom;align=center;labelBackgroundColor=#ffffff;verticalAlign=top;strokeWidth=2;strokeColor=#0080F0;shadow=0;dashed=0;shape=mxgraph.ios7.icons.message;" parent="1" vertex="1">
                    <mxGeometry x="440" y="60" width="200" height="150" as="geometry"/>
                </mxCell>
                <mxCell id="167" value="" style="shape=callout;whiteSpace=wrap;html=1;perimeter=calloutPerimeter;" parent="1" vertex="1">
                    <mxGeometry x="440" y="241" width="200" height="94" as="geometry"/>
                </mxCell>
                <mxCell id="168" value="&lt;div style=&quot;text-align: justify;&quot;&gt;&lt;span style=&quot;background-color: initial;&quot;&gt;To start your income tax return process, please provide your name and tax number. If you prefer f&lt;/span&gt;iling an income tax return jointly with your spouse, please also provide his/her name and tax number.&lt;span style=&quot;background-color: initial;&quot;&gt;&amp;nbsp;(To check benefits of filing jointly, please click)&lt;/span&gt;&lt;/div&gt;" style="text;html=1;strokeColor=none;fillColor=none;align=center;verticalAlign=middle;whiteSpace=wrap;rounded=0;" parent="1" vertex="1">
                    <mxGeometry x="450" y="110" width="180" height="26" as="geometry"/>
                </mxCell>
                <mxCell id="169" value="&lt;div style=&quot;text-align: start;&quot;&gt;&lt;font color=&quot;#111111&quot;&gt;&lt;span style=&quot;background-color: rgb(255, 255, 255);&quot;&gt;I would prefer filing seperately. My name is Sebbastian Schmidt, tax number is 123456789012&lt;/span&gt;&lt;/font&gt;&lt;/div&gt;" style="text;html=1;strokeColor=none;fillColor=none;align=center;verticalAlign=middle;whiteSpace=wrap;rounded=0;" parent="1" vertex="1">
                    <mxGeometry x="450" y="259" width="170" height="30" as="geometry"/>
                </mxCell>
                <mxCell id="171" value="" style="shape=image;verticalLabelPosition=bottom;labelBackgroundColor=default;verticalAlign=top;aspect=fixed;imageAspect=0;image=data:image/png,iVBORw0KGgoAAAANSUhEUgAABEoAAANeCAYAAAAFpuvjAAAAAXNSR0IArs4c6QAAAARnQU1BAACxjwv8YQUAAAAJcEhZcwAAFiUAABYlAUlSJPAAAPt/SURBVHhe7P0PdF3VneeJ1ut09+qeP69nXvd7U/PnrVnd02vWW/3WevNm6U1PNBUnWmHFU0yXmZVYXYVVjwQNTEXt1zghbTkNKgowpIigXCqnYjyFEZQRpKwyAZmUIy+MSYnIWMgRjgQOMjEyGOTgWGAiYmIZO7+39zn73LvPPvuce869R9KV/PmwvgvrnH332Wf/37+z//yGAAAAAAAAAABAAIYSAAAAAAAAAAADhhIAAAAAAAAAAAOGEgAAAAAAAAAAA4YSAAAAAAAAAAADhhIAAAAAAAAAAAOGEgAAAAAAAAAAA4YSAAAAAAAAAAADhhIAAAAAAAAAAAOGEgAAAAAAAAAAA4YSAAAAAAAAAAADhhIAAAAAAAAAAAOGEgAAAAAAAAAAA4YSAAAAAAAAAAADhhIAAAAAAAAAAAOGEgAAAAAAAAAAA4YSAAAAAAAAAAADhhIAAAAAAAAAAAOGEgAAAAAAAAAAA4YSAAAAAAAAAAADhhIAAAAAAAAAAAOGEgAAAAAAAAAAA4YSAAAAAAAAAAADhhJIMH/xlLx0+k7ZO/U/Sf/4fyY7X/wH8u3Df6eiHYf/rux66f8iT7z8L2R4+l/L9M8fl199/J75NQAAAAAAAMDK5ao1lPz8ly/Lwy/9X2MGgDL1+Mv/D/nlwqx5WhJ9T7vx/TaSDp8O51Lwa7ki0z9/TB6b+Ofq2Z9IhKWWtPFk94/+qbz45tflwsIZ42ucg69/0fvbpVBaeqyEfJCuT8hDY/9JYMz668n/UcXvl+TUe9+TS5c/NL4vLVO7vyZf+1qvHDxrLqxGzh6U3q+p99w9ZS4Y5t+Rn5x4Tz42f65EPj73U/nJ6XnzFwAAAADA1QuGEu8AtHGtJEPJ+V+9rgba/1I9s7iBxCdtNPnOsf9XYHjRBpgIDCVJGjOU+PXgi39f/urYf5eI/9KYelS+9rWvSe+z75oLIctmKPl4Xn468rh865t3ypbNOgxaW6Tn7m3y6LNT8l6Z1guvoeRjGXsofO7jr5pLTcG7cvCbUXyk6VEJ3+SUPHO3/nubHDwXXAAAAAAAuGrBUOIZaJahlWIoefuDQ/Lo0f/K+/xGtXeqVT6+csE8CUOJj8UwlNja/aN/Jqfe/xvztJJoIkPJx+/8QHbeYQb9W3qk988flcefeFwef2ib3HlbdH2bPDPzkflFg6TMKDk1dGfwnB801WyayFByr3xLx4lXo/JO4HZexv6PLfK1OwflJxeDC1ASH7+0S772zYMqNQAAAABgpYChxDO4LEMrwVByZn5UHhn/z73PblQ7Xvx7cmz2T82TQjCUJFlsQ4mW3mPm8Knu8maXNIuh5OxB2RbMIOmRnc/+VOYTr/exvPejx+Ve7WbzNjn4M3O5EdKW3jQlkaEkmjUCy0FQLjCUAAAAAKwoMJR4BpZlqNkNJXofi+++8mnvc8vQYxP/TbAprA2GkiRLYSjR0stxxk/fbZ7aIE1hKPmostxlmxMOl49UeHu0caOMwSqGEijCxSl5vKekvAcAAAAASwaGEs+gsgw1u6Hk1Xcfkp1H/qH3uWXoBye7zJOqYChJslSGEq2/GPtHwWavDVPTUKJncnxXvnXvlsCd1pY7t8ngjzybnQZ+3SnPvKn+/fF7MrGnt7LPyLbnM05S+uAHsk37fe8zZulIFh/J2IPazx4ZPGEuaYJnh9c+Pjch3/3ze6t7nNx2p2zbMybvuCt2UgwlXiORcfutH86LzP9UfrB7m/RsMf7rZUIPPSM/SXvF934izzzUW3V/273yrScnCu63UsRQkuK2njhSfPzBKRn73i7Zdmc1D1TewZ35U8czwvhO16P2S1x8V6ae1XvY9MiWyI2K/227fyCnUtJ310sqoj86FUuzLXdsk0cPv2PysM7jg7LtDvN+m7fInX2DMnGumkDvDFfzclxLuzwNAAAAAIqDocQzoCxDzWwo0Usw8s4m0WF49sTvy0un76rohzNfladeaTPxl9wAdtdL/1hmfzFinlYFQ0mSpTSUaOl0s/eNqYtMQ8m98qgaXOqBY+9D0T4Yu6TX7BeSmP1h/Hr0ZTVQ36bc6AGs/t2j35JnXjNuPMz/8FvB7+4cis9aSiNyf++w9Xzz7J1PPRMs4dly/67K3h27vmkGwNsOyrv2wL4OQ8mdTzwjj96h/L/7W/Ko8f/R7XeG/t/xqEy5g/WfmSVFm++Ubz1q3P/5neEg/87Hk+5TKctQUjCOFD/Z0xPkgXv//FH57rNjMvbsd6vuHxqT2CvU8Yz5Nydk4mVXo/L4vfod7pVnLOvZ/IjKj3pz3z7l7/d+IBMjKj2i+L/3GTnlSd97nzooj+s0q4TFysPPnVLprd5viyd9Nn9LRj8IvQrD+F35lr5+96Pyg0o4fyLvsg8MAAAAQFODocQzmIykj8rVm51qt0X1/kevZe4JsZyGkvc/+ok8cvS/9D6zqk/I8PS/rnnUrF5e89LpO4O40qfd6N/uO77W++5vvr8/ZnDJkjaq6L01kuGqau/U/+T9rU+v/Gyn10Cg47fZ84E2PJ2cezLmr95fZuKdbwZp9Jc/+q+Vu3wnFulZJTodGiLTUKLU86hMuKfMfjQhj+olCJvVQNyODuNXzx1q4Lnt+/JOzhkTweap6neP5i0ebz4jd+qw2QYO82w9m+HRHyUCLBOPqjDpZ9iWgzoMJdqP3v3RTIQq7w73hvfseLzyUxnUm9N64vCjl8MlRD1//VNzpRblGUoKxZHmo3mZT6TlvPygT/vlnKxT7zMcImNYr20M01xUYfEYJgJjjnIfO6nISrOEUa+Sh5U8Bi5veqrYfFT7x9IbAAAAgBUFhhLPYDJSrdkAjbCchpLXz/2V/B9H/kPvMyPp44JrGUlczn90Qp4/+b8Hg/pGyRNGbUxplNWSD/QMnide/hfe37t68c1/b35VJzUMJe71iJ88oe87xoRokLx5l4zlnilRfVatwXOFaABsD1ijZ6cNYl99PPk+9RhKXONQxLmD4fIhy6+Pf7QreOa2EddgoDFH+Kb5lyAyfqSr+m41DCVF4iiDd58NjQmxdCvjGSqug1k4ntktqfjycZRmPYPyE48/Ub7zpo83b2AoAQAAAFiJYCjxDCQjrVZDiZ6J4HuerfHTW43r5QFDSVV584Ge3TMw8d96/bC17/j/bH5RJ74BpiIcRDr7gFiEg+QUQ4ljeKhFmYaS1Bka5jfegXQRQ8mfj4rP7KF+FQ6iLb9CY9K98v2UE3q8z0klMn6kHw/8/VejkGUbSgrFUQZZhpK6n3FFhV0v2yp6spEvH0dp9tBYcj8dRRj/Zk+dBMn0rFzDUAIAAACwosBQ4hlIRrpaDSXaQKENFcsJhpKqiuSDH739x+o32ctwBif/h8b2KfENMBW1BvFZhpK8A+2IMpfepD7bN0CPBtJFDCWO2yruwPrjykk+2Yqe458xUg1vivHDS7ahpFAcaYINVL8ru/rulDvtDV2NfIaSws8wvPus3oNE7x2S8vuP5+XUkWfk0T/vlTvvtjZ0NYr5WyPNsvM4hhIAAACA1QKGEs9AMtLVaijRA2094F5OMJRUVSQf6P1H9D4kPn8iNfw+TWAo+filcIlKGZu5FhqgpwykyzGUzMvon4f+PH442vjTp2gz0Hn5yf46Zol4Kc9Q8tFrg3JvZTPaZ6qbmJ54R346dG/gX2mGkmjj27RZOz8blZ16z5ev6c2FvysHj5iwvHpK3jsS5qE86RuBoQQAAADg6gBDiWcgGWm1Gkomz3xLdrz497zPjKRPxSm6R0mZYCipqkg+WJL3aQJDSX3HAztLJprOUFJ76U0xlsNQ8lMZDDY83SVjHstF1tKbQumgufKufF+HOXV/m8jwdK98d8azkMb33BpphqEEAAAA4OoAQ4lnIBlptRpK8sw60LNKDr7+pcwTWxYTDCVVFckHedL2r479d/Krj98zv6iDlIHtkhpK5GOZ6NfP+5p8ayT7XT5Sz9CnxXyt7wfxWQf1DNBTBtJlGUqimTLF48PHMhhKond+dCL82yGMp3IMJaeC2Sk98ujLabsAm/j94+97jRSR0Sbmb400w1ACAAAAcHWAocQzkIy0Wg0leZ4d6hPy3ak1Mn/xLfPLpQNDSVVF8sGRt3rUb7L3KFnczVyXylCi+GBUvqWXXajB8s6Rd+Rjj01v/qfPhEszfBt9NqGhpHI8sArvMzM+A8DHMv9B3uOBlsFQcnFMdul3uvcZOeWkR8VgpdSwoeTEYHhUsoq79NiITgnyzDiJluy4/tZIs+KGkowwAAAAAKxiLly6LH965KfS9uiI/Af3Dslv3PndQP9Q/Vtf+9MXfxq4aVYwlHgGkpFWq6FE84OTXd5n+rTzxX8gB1+/QS4snDG/XnwwlFSVNx/kO/XmE4ExpSFSBrZLbijRVPagULrtTtn2kNmr49FvSe8dZhPRLSlGh3oG6CkD6dIMJRo9iN+i/fuabLl/V2XvEb0ZaY++nuqfyzIYSuRj+ckTPWHYv7lLvvvsmIw9+10V9jtly9d6ZFd/uFdMQ4aSyJj0tXvl8R+aPUcc/eRn4VKbd58LN3r92p3fkke/9wOZGHlGHn+oV7Zs/pps698VbPCbJ30jihtKRN75Xrgvy9f+eKc8MzIhP/je4zJ62twEAAAAWAR+Nvy4/MYtz8iL5u8Kv3hdvv3AQ/JPb9kpv/GVh+Sze2fMjXLZNXFK/knv9yrGkTT9Y+VGu21GMJR4B5ONKc/AerkNJXMXVKf+6H/lfW6a/uLIfyzPn/zfl8Rg0kyGknq1lPng3fkx2fPj/977e1u7XvrHMvuLEfOrOmkmQ4nm43n56cjj8q1vqsG4mSWgN+/s+ea35PFnp+Q93zmvmmY1lGjm35GxJy1jj1ZgCHpGxt5p4hklmivvyYQK+723mXBv3iJ39j0qP9DGqnMHg71lGjKURPGaoapfH8mpkUdlWyUew3zx3Zf1cq2fyOMqv8SeWyPN6jGUyJV5+cmT20Ijl75/273yzOL0SQAAAGAlM/mM/MYtO+XeSfO3hxcf2ZkwgJz/4V75zVsekW+/YS4o/IaSc/LEver3dz4j+0+dk5nXJuTFU8EJAaXS/ewrCYNILenfNBsYSjyDyUa1EgwlmvHTd8uDL/5977OztPPIfyB6/5LFNJhgKKnKlw8u/3ohMHbpjXn18qi86VhGnAEAAAAAQMnUaSj51Y+ekX/6ld3yhHXCgddQcuoH8tka/jfK1r99LWYA+bt3PyUbnhyXb7/0hvzNiZ/J45On5f+3/5j8R9/YF3OnpX/bTGAo8QwmG9VKMZTojVq1waPWnhZp0jNMfjhzq/zq4znjY3lgKClfu3/0z+T8RyfMkwEAAAAAoGmo01Diw2soCfx/XJ5ImcTbKC+8eS5h/Hh+5ufmbpyfvveh/KP7VHgc99qPZgFDiWdA2ahWiqFEo48AHnr1GvW8+owlWn/5o/9aTr3/N8bHcsBQUq60UWv654+bpwIAAAAAQFOxwg0l/+qJwwnDx+9/d1zO/vKi/NHzPwnu3/DUUfnVx+EGrv92/48T7rWbZgFDiWdQ2ahWkqFEo5dx6L1H6lmGE0n/Vvuh/SoDDCXl6eGX/on8dG6veSIAAAAAADQd9RpKPAaQmKHk4ow8sXOPtH5N/9bSI9ZSlyvvy4uDe+V/2Rze+83Nj8hNT7wiP7tk7tfgjfd/mTB6aP29u5+W/9BZZnP8578IfrPtxddj1yM1CxhKPAPLRrXSDCURelaIXp7hC0s+fSKYnVLGUhwMJeVIb/CqN3oFAAAAAIAmZrEMJVcuyvlfzMv5w0+pa7vl4dfVv/XfH5mjea+8K098U/n7tcflT55/RV5+bUYOPb9fvvC1nfKb3/yhzFwJnWXxyMtveo0eruwZI7/jmYGi1SxgKPEMLhvVSjWUaPSMkLG3/qihuHn61c8GS3oaAUNJY3pk/L+Qo29/o7QZPgAAAAAAsIgYQ0ltFTSURHjcac6P7JHf1NfdczqOH5D/Xj2vZ7z2yThfP1j7pJuvDk/KlV//OnD/7w++6nWj1SxgKPEMMiM9NvHP5e0PDgVui+j9j14LNkrNolkNJRHa0DH21h/WaUT4hLz45teNT/XRTIaS5c4HxfUJOfTT/808oVzeeOMNhFAJAgAAAIhhDCU37X1FDv3Ir29vK9tQMi/7+5SffS/JeXOlymtyrwrPbz72uvk7nT945mWv0SOSPZPky9/LdtssYCjxDjRD5ZkRUC/NbiiJqHeGiZ7RMHeh/rOnmslQstz5oB7pzVt/eu6vzVPKwzfgQwgVFwAAAEAMYygpfelNhNdQMiN/siWaqZIiey+TFGrNKPnO1OnA3Td/eMJ731azgKHEM8iMhKGkip5h8uKb/z4YgPvCmtQn5MhbPebXxcFQUtWul/6xnJx7MghrpOPv7pK/GPtHXveRnnj5/1l6uH0DPoRQcQEAAADEWE5DyV9MhPuW+BTtZZLBo8ey9yj5vb0vyV0/+ImseWTEe99Ws4ChxDPAjIShJMn5X70ugz/+/3jD62pw8n+Qj69cML8sBoaSqtLygV5ek32sc/lLcHwDPoRQcQEAAADEWBZDiVl6c+8P5WfmSj3MnPefehPpP/3mM9L26Avyd+9+ynvfVrOAocQ7wAyFocSPnl2iN2z1hdnWI0f/S3n/o5+YXxUDQ0lVaflg/uIpGZj4b72/iVT2EhzfgA8hVFwAAAAAMZbFUBJt5vqIem59H7gj0k6x0frRbLgDyrdfesN7P5L2o1nAUOIZXEbCUJLO+Y9O1DxK+KGx/1Te+eAH5hfFwFBSVVY+ePXdh2TnkX/o/V2kJ17+F4FRpQx8Az6EUHEBAAAAxFgmQ4k+Hvi7D2h/d8oXHvmh7Dcbx+4ffk7+3QMPyZ9khMfmh2/NeY0f/yelhcvhARejKW4iaT+aBQwlnoFlJAwl2Xz/tc97wx1JGzq0waMeMJRUlZUP9Kk6zxy/1vu7qj6h4upLNU/gyYNvwIcQKi4AAACAGMtlKNFcmZefPP+M3NTzkPymCoMOxz/994/ITY/8UF5OHoeTyr0jr3kNIP/L44flianT8v/e+Zz3vpb+bTOBocQ7sAyFoSQbbajwhTsShpLalJEP3v3wpeCUId9vI+klONM/f9z8on58Az6EUHEBAAAArEZqnYDjk/5Ns4GhxDOojLQaDSW/+vg9mXinV+YvvmWu1M++4/+zN9yR9GktehBfDxhKqsqTD8beukN2vPj3vL+PVMYSHN+ADyFUXAAAAACrlUdeflP+b/f/jdcoYku70W6bEQwlngFlpNVoKIme++CLf1++O7VGTr3/N3UtyZj9xQvSP/6fecMdafeP/ql88KuT5hfFwFBSVZ58oDfY/evJf+n9fVWNL8HxDfgQQsUFAAAAsJq5+PEV2T52Uj77ly/If/SNfRXjyH+s/n2NuqbvaTfNCoYS74Ay1GMT/1ze/uBQ4Lao3v/otcwBaZ4Bsp6RcXLuSa//eeWGw/fch8b+E9n/2v8qb76/Xy7/esG4TOfd+bGap61offeVT9c9KG8mQ8ly54O8BrNT731P/mLsH3n9iKTjdPrnj5lfFMc34EMIFRcAAAAANC8YSjyDyTJUaxZCngFyGXLDUeu5O1/8B/LYxH8jw9P/Wl46fZfMvLcviCv9/xff/Pfy15P/YzAbxfdbW3oZyLHZPzVPLU4zGUoaURn5IK+hRHPop/+b+s0nEn7Y0kauepfg+AZ8CKHiAgAAAIDmBUOJZyBZhsoYIJchNxzL9dyiYCipqoihRBtA8sz2efb1/29ds318Az6EUHEBAAAAQPOCocQziCxDZQyQy5AbjqV47s4j/1Beffch88T6wFBSVRFDiUbHvU4Dn1+R6k0j34APIVRcAAAAANC8YCjxDCLLUBkD5DLkhmOxn7vj8N8Nln/UuzdJBIaSqooaSnTcP3P8Wq9ftnb/6J/J+Y9OmF/lwzfgQwgVFwAAAAA0LxhKPAPIMlTGALkMueFYzOfqvUt+cLKrYSOJBkNJVUUNJRp9LPMj4/+F1z9b2qBSJL18Az6EUHEBAAAAQPOCocQzeCxDZQyQy5Abjl99/J4MvXpNMPPD575ePXr0/y5vvPe0eUrjYCipqh5DiWbsrTuCTXV9fkbSxq0fn9luflEb34APIVRcAAAAANC8YCjxDB7LULMaSiL0kgu9ROaR8f9cucs+JSVdnwiWb0y8c3+uY4WLgKGkqnoNJZcufyh/PfkvvX7a0jNP9AyUPPgGfAih4gIAAACA5uWqNZRAFT1Yf+VnO4MjgZ94+V+ogfk/CY4JdgfUfzH2fw4MK0+/+lmZeOeb8v5Hrxkf4GrBN+BDCBUXAAAAADQvGEoAIDcXL15ECJUgAAAAAGheMJQAAAAAAAAAABiuCkPJu/NjiWUkCKFQekkVAAAAAAAAhGAoQegqF4YSAAAAAACAKhhKELrKhaEEAAAAAACgCoYShK5yYSgBAAAAAACogqEEoatcGEoAAAAAAACqXBWGEgAAAAAAAACAPGAoAQAAAAAAAAAwYCgBAAAAAAAAADBgKAEAAAAAAAAAMGAoAQAAAAAAAAAwYCgBAAAAAAAAADBgKAEAAAAAAAAAMGAoAQAAAAAAAAAwYCgBAAAAAAAAADBgKAEAAAAAAAAAMGAoAQAAAAAAAAAwYCgBAAAAAAAAADBgKAEAAAAAAAAAMGAoAQAAAAAAAAAwYCgBAAAAAAAAADBgKAEAAAAAAAAAMGAoAQAAAAAAAAAwYCgBAAAAAAAAADD8xrcP/x1BCCGEEEIIIYQQQn+HGSUAAAAAAAAAABEYSgAAAAAAAAAADBhKAAAAAAAAAAAMGEoAAAAAAAAAAAwYSgAAAAAAAAAADBhKAAAAAAAAAAAMGEoAAAAAAAAAAAwYSgAAAAAAAAAADBhKAAAAAAAAAAAMGEoAAAAAAAAAAAwYSgAAAAAAAAAADBhKAAAAAAAAAAAMGEoAAAAAAAAAAAwYSgAAAAAAAAAADLkNJc888wxCaJnk4nODEKpPLj43CDWzAAAAoFwwlCC0AuTic4MQqk8uPjcINbMAAACgXDCUILQC5OJzgxCqTy4+Nwg1swAAAKBcMJQgtALk4nODEKpPLj43CDWzAAAAoFwwlCC0AuTic4MQqk8uPjcINbMAAACgXDCUILQC5OJzgxCqTy4+Nwg1swAAAKBcMJQgtALk4nODEKpPLj43CDWzAAAAoFwwlCC0AuTic4MQqk8uPjcINbMAAACgXDCUILQC5OJzgxCqTy4+Nwg1swAAAKBcMJQgtALk4nODEKpPLj43CDWzAAAAoFwwlCC0AuTic4MQqk8uPjcINbMAAACgXDCUILQC5OJzgxCqTy4+Nwg1swAAAKBcMJQgtALk4nODEKpPLj43CDWzAAAAoFwwlCC0AuTic4MQqk8uPjcINbMAAACgXDCUILQC5OJzgxCqTy4+Nwg1swAAAKBcMJQgtALk4nODEKpPLj43CDWzAAAAoFwwlCC0AuTic4MQqk8uPjcINbMAAACgXDCUILQC5OJzgxCqTy4+Nwg1swAAAKBcMJQgtALk4nODEKpPLj43CDWzAAAAoFwwlKxGnf5QpdglOfeq5x5akXLxuUGLo5Hps3Lhkon4X1+RCz/7sdcdWrly8blBV4eOn9OF/UN5y3OvmQUAAADlgqHEo7e0nSGVagdq4mcX1d9X5IOTST+WVRhKVp1cfG5Wp45LMG5xuXJJLp5/R6Ze8P2mRB15Sz78tXrexfflrdem5PW3zsgpytWqk4vPzarTIZW39ct++JY857sf6EU5c0G5+fUHcuqQ7/7qE4YSAAAA0GAo8Sg0lFyU999+R95J6HX5sXH34tu6B3lJzk0n/VhWYShZdXLxuVmdMoaSjz+Us5UyeFbej6Z4XFEDmpd8v8vQ9DlVOiID53Ny8hdXVHE/WynXtl6cNWWcsrSq5eJzs/r0nJz6hX7bC/LOEd99pSNn1F3FL05lGFNWlzCUAAAAgAZDiUehoWTldZQqwlCy6uTic7M6ZQwll87JcefemMrnV9StK++9FrteUwUMJSt10ISKycXnZjXquZkPgve98M6L3vsT7+pZkyIfvJG8t1qFoQQAAAA0GEo8wlCCmk0uPjerU+mGkmeeeV3e/1jdWzgnU4l75QhDydUhF5+bValDp+QDvbTsl+/Ii4n7E3JW20l+/YGcTNxbvcJQAgAAAJpVaSgZHh72Xs+r3IYSn0EiuKZ+e2hK3jl/US7pTqjm11fk0rxvT4URmXr7Q7mkP437iA0Qn1NuP5CLuh9nuLLwobzzyojln1IUrpMn5eyHl+RKFIYrl+TDsydlzHYb6aWk2wvnTspEbF16OGi99PMpGTt5Vj5csAJ96YKce2PiqpmevdRy8blpRN///vfl8OHDDenQoUNevxtTlqHE3LMMJcEg5+JZlW8n5NT5an4Ov4hX92SI+1O9d+nc8fDvV9+RD39lFTRD5b4WZWbVyMXnZjn0wx/+0Hu9TJ1MW37z8lkJduF6//X49QL5/uK7Kn9PnJIPonxfMbrodi/elskV1UZ+eE5OTtj+PJMoN1e85SYsvx++lbON1FLvca6yS7NCt49vT8lrQaXiaf+bvLwDAABAuawqQ8n3vvc9OXPmjPziF79oyFjSuKHkiu7zyZWLH1T2VTjz3sVgmYD75e7HwdTmK3Lh7Osy9fKETLxySs79Sru8JO+feNHqVD1nvnSpO/Nn5Z2ZU3LqbdURCy6pMBx/ruJnGAblq/Lm0i/PyZm3lduZd+TsfPj7K/Nvxb8evqQ6mfqRVy7I+7NvKbdvqfBeCJc1qEFl1bBiBqbK4yu/Vp3Kc2cqe0aE4bgi7zfbfi2rRC4+N43ohRdeMD7Xz5tvvun1uzGZPOczlBwLB3Lyi5OVa0EZufSBnNMZWg1M3j+r8ufsGTn5sr5fwFDywphMqPJ48n398AtyRpdNpaMvmnJGmVlVcvG5WWqNj48HYXn9dcdQUbbeMMtvZuPLb34cTCdR+fOE5bZgvr90/lzg/tKF94O28MzsSZnQfpt27+J7qjy8pdqnt9S9cx/KxYX4prGV5XXq92cCd2fk/QvBFfnw9FjFXVR+r4QNr3ygy70uZ7Pvy0Xt3DUE6U2a9XVdJpXbU6o91W6119qLRPu/Aso7AAAAlMuqMpS888478vHHH8uHH34oH3zwQd3GktBQ4if2RTnVUKL45TvOzI3n5OR53a1Sg65Kh80sHXCnPZsN9PRXqco1MyjUz499kfJNnY7CkNiA7zl5/X0dhoty9lj1WrBHw69VR9LZFLPSUa507Ewn0DXMaL10xv/1EZUiF5+bRhQZSnz38uitt95aOkPJC2MyNXMuGNTE83I0bV6xoNzHvvRqhYOpXIYSI/80fMrMapOLz81S6ujRo/LrX0dTF0QmJia87sqRaYcunLHaoR+Hy24+fl9eq1yrJ9972iyloI31zhKzdOikfKDLeKIt9YXNlG1P2J47+UFg0LANQa+9p69oI1CyTAab18bK/Moo7wAAAFAuq8JQ8jd/8zeBkeRXv/pVMODTBpL3338/MJYcOHDA+5sshYYS/6k3p45bX90yDCUfvmVdi92z3fsHZ5VO33x1QBduqqcGhcGX8bgSM2BMGLwb8B3XG1mGU6LDa6ozqvvj1lf5il4N3VYNNqYT6N0TwtzzDkJRo3LxuWlEjRpKtJFkUQ0lPvSU+qn4YCQ0bNgDF1tlGUooM6tNLj43SyU9k0QbSV577bUgLCdOnAg+AIyN2TMoylVoQLeM+MYwH98ouY58HzNmVFWZUXLulPw47YhvM9PF146F5VK1pa9E15JtZlVu2Z6ScwvBBY+h5jl555faI7vMr4zyDgAAAOWyKgwlP/vZz2RhYUGee646aNLGk7Nnz8ovf/lLOXjwYMx9LTW+9Ma5lnrPdMBUxyn2xc3MKKkaM6J15Fm4hpKUMLidRrMOPYtqBzOro8egbzHl4nPTiFxDyUsvvRQM0PJKGyW17GvPPvts7Bn1KRpwVY8Hfuv1KZl4ybPngJLfsBGpJEMJZWbVycXnZqmk27Of/vSnwVJSjS6bP/rRj2R+ft7rvhRNvx/MuojanHCmhNOGlJbvtcbk5Llw6YpG703y1nF7qWn1xJ107PD5y6//XrXdTbr1lPkVUt4BAACgXFa8oWRmZiYIn+5c6o6lfU8bS/Qsk/Pnz8eu19LSGUpUp+znuud0RS787LVg/4ORl16TM79U3ccr6vnWmupow71or4SkxmTEuM0Mw6F3wmU9UcfOdAIvvX/S42eoyr4MDPqWTS4+N43INZTopTSu4aOINCMjfmNGMZl8VWuavtFSGkooM6tHLj43SyW9sbJuyyJDSVSO9u/fn3Bbnl4Ll9/ojZDTylxp+d7SCz+W198+Z/bvUM3ehbOVJXOhoeSSvH/S/6yJl4/Ki5XldYtvKGn28g4AAADlsmINJboTGS23OXLkiHz00UfBRq62seTUqVPBTJPnn38+9ttaWkpDSfBl7bzpJRou/ep9OTVRnR2jFXUavf66Cp6j+2Oee2lLb1TnzV1HntTydQKvdrn43DQin6GkkaU0mhVlKHnFTKHPYyihzKw6ufjcLLVcQ8liK9y344KceTU0DFw8+2PHTVn53qfnZOLtcOPWSttklt58eDreFvpVxFBilt54l8f42v+VUd4BAACgXFakoUR3IPUMEm0ciZbV6KNJL126FBhP9N/6q3Y9RhKtJTWUBGucL8n70zU6w9GacdXJim9s55ExlOgOWWyTWNUZTd3MVYfL3XwuIQZ9yyUXn5tGdHUYSoxfF8/Kj2PXrROlchlKKDOrTS4+N0utpTaURPttXLgQmElimySHKivfp8id7Rht5urdmNlVEUNJZBTyvMdLKgzaKBIr8yujvAMAAEC5rDhDie486pkjFy9ejO1JovWDH/wgMI689957weZ3f/u3fxu7n1ehocS/mes7b79eHWSVYCiZCpbeXJQzzgySpNRg7ue6A6u9+FDOzZrwzJ6TDy5cCo78rbgNnnNFLimvfccDX3rv9fiXsejoQ/Wbi+fPVt717HsfysVLF63wMuhbLrn43DSiWoaSPLjum89QEg2QlHf6iG1zLGlQLvRxnsFj8hhKlCgzq0ouPjfLobm5ueAjgO9e+TL5UZMwJhqVku9V/fKLS3JxXrVNb+lj8afk9cqxv/H2MToeOHbk79tn5f0PL8qli3adUMxQUnmP2PHA50Q1pdnHAzdxeQcAAIByWVGGkmgmiZ45kjZT5PTp04GRpJFBWmgoScPqQJVgKKl+wXJQHbgL504mjhieeOOsfLgQ9NhCfq0GeAsfyrkZa5q0fo4eWL50Us5+eEmuRP5f0Z1C10+jF6bknfOq82l5rd1fPH9Gjlf2Slm+TuDVLhefm0bkGkq00cM2fBw+fLim7AGdphkNJc8cmgg2kbxklblLF87JyQn1nAX9mJyGEi3KzKqRi8/N1aBwE1eJbSSeUMP5Xj3n9AdyMeaB8kK1Y2emkyf7jLzyjnzwK6sdU1y5dFE+mD1uzZgsaChRem7ipJzTlpEI3T6+PSUjQTvtKfNNXt4BAACgXFaMoUQbSd59993MmSJ6Y9dGjSRLqpdOyQeq43Tl4geVEz1CnZFzZne7i++668TR1SgXn5tG1LxLbxBafLn43CDUzAIAAIByWRGGEn16TWQk0QM6nxs9sLt8+bL88Ic/9N5vPj0XzlxJm+LM12ZkycXnphHVMpS4p9r4pI8UjtxrMJSglSIXn5sypJfSLJbOnTvnfSa6OgQAAADlsiyGEj2g8nX0bL366quBW20kOXv2bOZMkchIMjo6Gvzt+rV0a7yLyOy8f+GMs+GqkVmSc+X915P30FUnF5+bRlRr6Y1bpnyKyqyWBkMJWily8bkpQ5r5+XmvobERaT9//etfe5+Jrg4BAABAuSyLoeTHP/5xcKyvr8MXSRtTIiOJ3pMky0hy5coVefHFFyvXbH80zTpgOx5s5HpFLr73jrz+yoRMvKz1mpyafV+Cfe2ufChvveT/Lbq65OJz04hqGUqKSuMukZuYmKicSoVQM8nF56YMaXR79fbbb8vw8LDXTREdOHAgKFP6QwGGkqtbAAAAUC7LYiiZnJyUDz74wHsvkjaS/PznPw+MJPo0G5+baCaJ3kjSd19L07xftkdk6m3PpnYfX5IL770jUy/4foOuRrn43DSixd6jZHx8PBjI6f/b7hBqBrn43JQhjf4IoJfJfPjhh5ltVy1pfy5cuBAsSx0bG8NQcpULAAAAymXZZpTUMpTojqTu+KVt3Hrq1KnYcps0aVgCgFa6XHxuGlHZS2/039GStx/96EfBV3Q9oyS6j1AzycXnpgxpovbolVdeCcrFyZMngw8Drts0abfakKmXo+qPDvqaLr8YSq5uAQAAQLk0raFEozuC+rhffeKNfe+NN97IZSTR0mAoQStdLj43jajWjBJ7OVua7M1cI2kjiebll19O3EOoWeTic1OGNHZ7pI+51/uL/OIXv0idOWlLu9Hu9ZLUZ599tnIdQwkCAACAcmlqQ8nRo0flo48+ktnZ2cr1119/PTCS5D3dRoOhBK10ufjcNKJaM0rq0dTUVDB4i756I9SscvG5KUMatz3SM0R0WdOzS44fPx67Z0vf0x8PdLly77nlF119AgAAgHJpakOJXnajtbCwECy1ee211woZSbQ0GErQSpeLz00jqjWjpKj0MhyNXl7gu49QM8nF56YMadLaI93GafSyU3u2iP63vqbR+3b5lukwowQBAABAuTTtZq4aPVDTU/r1CQEa/TWtiJFES7PchpK3PhT58LT/3srWcTl36ZKce9V3bzn0lnyo/nvLe29ly8XnphEVmVGyf//+YMCWVha1cURj71nSPGq2PFuvmiSvn9aV21v+eytILj43ZUjj23dLb3KsZ5RMT08HRhG9ibletqaXrOl/ayOKLqP6376To0o1lKySNM2v1dFuAAAAQLk07YwSd6NIrXoMHprmNZToQVsQxBjFjCqqk3fpnBz33itDYRh1mI4H/7A70BhKlkouPjeNqIihREtvQKlndx05ciR2XRtBNc1pJNHKyrOe8mjl97c+JK8nhKGkkDRue6SXmGojiTaM6L/1nlzaQKLLl75+7NixiltdTvUHA70ENboWXW9eQ0kZ7dxiCkMJAAAAJGnaGSVlSdPchhJ38KU7bYq8HdVX9dfHxTSUZAlDyVLJxeemEbmGkjxLb/RGy3ogFx1xqg2gmuZebpOeZ3U5TS935HWvMJQUksZuj6Jjs30nQumNW/Vmr+51PSMlmmUSXWt+Q0kzlR1XGEoAAAAgCYYSR8lZE46hQ3UiL517S3X8Aq9DHPeBHxGXzsk5+/cxpXUgdcfNuq6NIca7gMgwoju0NpbBJBj0RdiGlBzhr8oJh1bMMGPCr1+wgtvh1H5UuXSuulmhjqcPT2s/wntBHBWN39jzwg7vudT7+lnq71i86fvxMMbTqlb40++XKRefm0YUGUqiE2x0+axlKNFfvvUygOgLt8a30WQj0vk4HqfxMpMnDWJl4UNVHlMGbbFyHlPcf/WEyu/TylmQR7PqES2nXFfvmXxauW/n4Ug6TE5et8u5VmH/s+MxXu5MHOiyFMSpuayx37uh8uwrr/60a1QuPjdlSBO1R5GRpB7DojagRHt36b8bMpTE8omK36DBstIoNR85+V/hr//iZdZVPP3j/oflW//euufJU/q5MX/sshCE3ylDQb6N3jEsS9F9Nzz2O3nDE7xf+HeE/Q5LJQAAACgXDCWOgk5S1gAn6LTbnb5wcBG/b3XKTCfT33FK70DqZ1Y7aKoTWHETdsoq9/TznAFS8A7WtZhftcIfk77nhE+/T8Vv00F0BkbVZzthdfyLOqSxZxeM33h6hW7t8AQd+crfyfCGHX3reTH/84TfTWsnvkqSi89NI9IbRkZGkryGkkjRHkJ6Rkl0TVPGTK54OdDSaZI/DdyykMxflrLuecqC67cd1ni+rN6v5nUnX8cGcyaf2u+VUPh7O27izyzqf3Zed8tdRcF16znucxNx6rtf9Tf+DiacVjwm0rMkufjclCGNLhf6KG13WU1R2cYS7afG5y5bTnok4jwjH+m0c/K4X9rPrDJn5Stf+bWfX/mN5V/wG+0onm8qeTmW941iYdfvaIdBtbeVf9cOj74Wr6OWRwAAAFAuGEocxTvqoWIDHN3Bcjrq9gDJP7CLd6zi9/wdyKQ/VcU6ZonweJ6nO3uRmxrhj0t3IJ3w2X553836jaeDaofdF9fF49fu5HrCG/MvGd5kGCz/Coc/K60bk4vPTZkqeurNiy++GPtbs2SGktQ0qJE/K9ds6fuGRL6wf+fx2yobvryt36XiPiWfp4fblec97Pxa1P8aeT2ZDka16pOGynO+cJYhF5+bMqTRhkhtJNF7k/jcFJE2lly8eDHYXLmuGSWe9Inl3ax8FKRFVlmKFKZjnDANffnKzne+cpQMU7Is2H5484z2o+Kvnedc6bBX/U4NT+rvl04AAABQLhhKHPk6QpWOof471sGq3g87Zf4BTuz3McU7YbbiHUjdkYtTueftNPowHbnM8FevhUp2QINOZ+V5vvBbcRB0ID2Y58c6s5FyxG+SKAyeDm8sfpLhTaa35Ufh8FvvXrlWjlx8bspUo8cDa5bKUJKeBp7868kDadLPruYd1y/9t48w79SqR4L7Hqr5vFYYPXndCmNh/zPzuh2njjLLa637ob9JorB5wrkKDCUavTm5PYOrEc3Ozhpfi4fbl0/tNMvOR9p9NQ2r11x50rFyPZmv7DDpfyf8TeSpZDmP/a6ooUTfi1H12xueQNX6YDHq/zwCAACAclkWQ4meov/LX/4y2ARysaVpzFDidOYyO/7OIMG67+88pXQgY1/qwg6Y/ftYZ02HJ2YoSeuUGtUIf1zJDmj8eb6OrvWbmFElqXyd4GT8pndEnQ6vViK88fdJprflR+Hw++KjHLn43JQpbShplMUxlMTzZHYa+NIjmQdSFRtguWUh259kvnLC4snnVeUJoxseJTu8Rf2vkddT64ga5bWx8pwSzkqalCcXn5sy5J7kVqb0scK+Z2YqVj9a16I0y8xHcaXmkYz87PuNXaaT5VspEaZkWYj9zpNn4uXTqvO13zG38bB7wxOTdq98WIQ2oJYAAACgXJZtRslSUmjA5naUgr+tjo+n45gYGNi/DzppaR2ntIGA3Xl0O4H674znKQWdwLRBT63wxxR2+qr3wr+rfpu/Lf/iz3Z/H5e301k0fmOyOryRtPtYeJId6vjzbD+Khj90vxidZBefmzJ16NAhr+GxiL7//e97/S4iNy8Hf1vloVYauL8P849T5lIU/21Y7uy0Tfhty82nwd/275P+VZXMp0k59YCSLifVvFzU/+y8nlru9PVa5bXu8uwJ5wo3lDSf3HwS5oN8+SiuZFmMlJGf3fQP0rfq1utnIk/pMMb9j//OfYfw7/g7mjBovzPqi/R3rErn7zzxVbYAAACgXJbFUNLsCgYcEarT9JbqHFU6PolOmtPxVwoGUBHu72MynVIH123MP92hU2GoPs/yw+rgxX+jiMKcI/wxGcNNRHDCSOU5+tlheKq4g5jkO0bv5+105glf7HmKSnisDq/tNhbeZIc6/jzXjyLhD93607oxufjcrE458a/S6q0PswYuyTSIlWfn9+7vYljlSatapuLPj2Hlpcx6JJAZsFWI/NVh8YXRVlgOtZ8VnPAW9z8ZB3Z44+9qfl+rvDZUnj3hxFBSvmJ1vIrv0+rvWJql5KPUdHNVIz87/rh5Ll6+jftE+OL+J34Xe4b7jvr3UZ5yyoByk13fZNcBSykAAAAoFwwlCK0AufjcIITqk4vPDULNLAAAACgXDCUIrQC5+NwghOqTi88NQs0sAAAAKBcMJQitALn43CCE6pOLzw1CzSwAAAAoFwwlCK0AufjcIITqk4vPDULNLAAAACgXDCUIrQC5+NwghOqTi88NQs0sAAAAKBcMJQitALn43CCE6pOLzw1CzSwAAAAoFwwlCK0AufjcIITqk4vPDULNLAAAACgXDCUIrQC5+NwghOqTi88NQs0sAAAAKBcMJQitALn43CCE6pOLzw1CzSwAAAAoFwwlCK0AufjcIITqk4vPDULNLAAAACgXDCUIrQC5+NwghOqTi88NQs0sAAAAKBcMJQitALn43CCE6pOLzw1CzSwAAAAoFwwlCK0AufjcIITqk4vPDULNLAAAACgXDCUIrQC5+NwghOqTi88NQs0sAAAAKBcMJQitALn43CCE6pOLzw1CzSwAAAAoFwwlCK0AufjcIITqk4vPDULNLAAAACgXDCUIrQC5+NwghOqTi88NQs0sAAAAKBcMJQitALn43CCE6pOLzw1CzSwAAAAoFwwlCK0AufjcIITqk4vPDULNLAAAACiX3IYSAAAAAAAAAIDVDoYSAAAAAAAAAAADhhIAAAAAAAAAAAOGEgAAAAAAAAAAw298+/DfEYQQQgghhBBCCCH0dzCUIIQQQgghhBBCCEXCUIIQQgghhBBCCCFkhKEEIYQQQgghhBBCyAhDCUIIIYQQQgghhJARhhKEEEIIIYQQQgghIwwlCCGEEEIIIYQQQkYYShBCCCGEEEIIIYSMMJQghBBCCCGEEEIIGWEoQQghhBBCCCGEEDLCUIIQQgghhBBCCCFkhKEEIYQQQgghhBBCyOg3BAAAAAAAAAAAAjCUAAAAAAAAAAAYMJQAAAAAAAAAABgwlAAAAAAAAAAAGDCUAAAAAAAAAAAYMJQAAAAAAAAAABgwlAAAAAAAAAAAGDCUAAAAAAAAAAAYMJQAAAAAAAAAABgwlAAAAAAAAAAAGDCUAAAAAAAAAAAYMJQAAAAAAAAAABgwlAAAAAAAAAAAGDCUAAAAAAAAAAAYMJQAAAAAAAAAABgwlAAAAAAAAAAAGDCUAAAAAAAAAAAYMJQAAAAAAAAAABgwlAAAAAAAAAAAGDCUAAAAAAAAAAAYMJQAAAAAAAAAABgwlAAAAAAAAAAAGDCUAAAAAAAAAAAYMJQAAAAAAAAAABgwlAAAAAAAAAAAGDCUAAAAAAAAAAAYMJQAAAAAAAAAABgwlAAAAAAAAAAAGDCUAAAAAAAAAAAYchtK3njjDYQQQgghhBBCCKFVrUKGEgAAAAAAAACA1QyGEgAAAAAAAAAAA4YSAAAAAAAAAAADhhIAAAAAAAAAAAOGEgAAAAAAAAAAA4YSAAAAAAAAAAADhhIAAAAAAAAAAAOGEgAAAAAAAAAAA4YSAAAAAAAAAAADhhIAAAAAAAAAAAOGEgAAAAAAAAAAA4YSAAAAAAAAAAADhhIAAAAAAAAAAAOGEgAAAAAAAAAAA4YSAAAAAAAAAAADhhIAAAAAAAAAAAOGEgAAAAAAAAAAA4YSAAAAAAAAAAADhhIAAAAAAAAAAAOGEgAAAAAAAAAAA4YSAAAAAAAAAAADhhIAAAAAAAAAAAOGEgAAAAAAAAAAA4YSAAAAAAAAAAADhhIAAAAAAAAAAAOGEgAAAAAAAAAAA4YSAAAAAAAAAAADhhIAAAAAAAAAAAOGEgAAAAAAAAAAA4YSAAAAAAAAAAADhhIAAAAAAAAAAAOGEgAAAAAAAAAAA4YSAAAAAAAAAAADhhIAAAAAAAAAAAOGEgAAAAAAAAAAA4YSAAAAAAAAAAADhhIAAAAAAAAAAAOGEgAAAAAAAAAAA4YSAAAAAAAAAAADhhIAAAAAAAAAAAOGEgAAAAAAAAAAA4YSAAAAAAAAAAADhhIAAAAAAAAAAAOGEgAAAAAAAAAAA4YSAAAAAAAAAAADhhIAAAAAAAAAAAOGEgAAAAAAAAAAA4YSAAAAAAAAAAADhhIAAAAAAAAAAAOGEgAAAAAAAAAAA4YSAAAAAAAAAAADhhIAAAAAAAAAAAOGEgAAAAAAAAAAA4YSAAAAAAAAAAADhhIAAAAAAAAAAAOGEgAAAAAAAAAAA4YSAAAAAAAAAAADhhIAAAAAAAAAAAOGEgAAAAAAAAAAA4YSAAAAAAAAAAADhhIAAAAAAAAAAAOGEgAAAAAAAAAAA4YSAAAAAAAAAAADhhIAAAAAAAAAAAOGEgAAAAAAAAAAA4YSAAAAAAAAAAADhhIAAAAAAAAAAAOGEgAAAAAAAAAAA4aSVcbcvk3S0tISqO+YuQgAAAAAAAAAucBQUiezezuNQaJVescWzNXlB0MJNMrCqSHpuaFDOjYPyPQFcxEAAAAAAOAqAUNJXczI4A2hMSLQ14dl3txZbjCUQGPMy6Hbq3l73SPT5joAAAAAAMDVAYaSejjeL+vMQDJUtwyfN/eWGQwl0BhzMnxrNW9jKAEAAAAAgKsNDCWFWZDx+1vDgeSNndJpBpSde2fN/eUFQwk0ysKxfum8pkVaN2yVQ4udrc8PS7fOr9snzYVVhDGobto3Zy4AAAAAAMBKAENJUeYPSY8xRHTsmawuU1jXL9OXjZtlBEMJrCTmD3SH+XUVGkqmd60L3g1DCQAAAADAygJDSUEqA7uWddJ/Qv19sMf83doUhgkMJbBysPZDWXWGkmnpXxe+G4YSAAAAAICVBYaSQszK4I1mYBfNILFmmLTePy7Lff4NhhJYMUTLbrRWm6HE2scIQwkAAAAAwMoCQ0kRrMFPdZNLa8+S3Ju6zsnQLaE/XU9Zm0CcnZShnT3StWGttJrntKxZKx0be2THvkmZzWGFKWQoubwgs8eHZXCbeuYN7dIWPVOpbX2HdN83KKOnCpznszArk/t2SM/GDlm7pupXtjbJ0Fnzex++OLmmXTo298rgyIzM11zutHhxXUG99/SBQem7o0s61reZ99Jqk/YbuqV376jM5N3sd35Gxk0ctl8T+WPCpv3aPSSjx2dlIeu9G/Qjdx66PC8zY0OyI/HerbJ2g84/AzI0Mp2Iy4VZFffbN+XKIzWfPzIovZvt99TP7pKenUMymZWvDJV3/fKQVHLH5TlPPrb8zcgc86dGZeCOzlhZ8qtGvgcAAAAAgGUDQ0kBoj0HWlo6ZfC0uahYGOutDLbzfT2uDt5bto0HA77J3V21B1drOqX/ePYIPt8gd0Fm9vcGG3bG/E9R+92HZLaGQWLucJ905DaOWLqmRw75oixnnOgNR4ettEiyeHEtCzMyfF+eQbFWu2w9mLUzqkqTfVvzx+G1O2QyEbwy/MiXhxZODsnWDZGBsJbWyo5j0YMmpc/rxq/UPHx6OMfz26Rr92SmMa36rn0yrtzNTw1IV81y0Sqdj0wnZ4+dHZJNXvc+YSgBAAAAAGhWMJTkZWFceqMB6C1Davhtcbm6H0HLjYPVL9OpWIP3Lw/I0PZ2M3hqlbU39UjfTv0lflxG9w3IjvucL+9r1AAr4wF5ZwPM7u2suGu9tlN6toXPHB9TOjAovbdaMy2UOvfMmF8mWTjWJ+2R2zUdsnXvuMycnZf586H0rJX+jdaMg5sGZHIuwwhxeVYO3R3FiVabdN7RJ4MHdPhGZWh3r2y61hokZ8bJ4sV1bClW5J+eraHjUGl4rxNObWA7ZX7qMLd/kxXf4fvu2DscpsfYsAzu7JOejdVZP+2eY3vL8ENTMw+dHZZNVjy13ajjcVCGK++9I5hdU5nlsT6+0fGCyRfzJwaly/jRcv9oJb/Y8s16WTjeL53W81uv3RTOktHPD2b2xI1X7dsnk0YNQ/Vdu2TgqWo+DsvEDhnYNyrjI0MysNNNy1bZtM/JHJcXqmEf6a247dozHXunSJmzggAAAAAAYNnAUJKT6iauLdJ9ILkcZfqRaLbJOuk/bi6mYg3ejVo39Mlo2hfmCzMyeGt1kJa1F0peQ4mcPyQ7tmcvI5hTg71oqVHLml4Z9zm1jUT6K3maYeHyvIxvi+KoVXrH0p87+1T1HYJ4SZlxMr3HMgzcOCgz3oHn4sW1Zv75HdKXtVTn8pyM3he9d5p/VhzWMs6o954ZG5XpxFKeMvwIqZWHqnndYyxwmD81LqPHU5Zv2TMw8u5RcmFc+ir5rU2698740+fsqPSuj9yp/HbYn0D2uwZa0yF9I2mzwhZkxs5zaWVCc6yv4id7lAAAAAAArCwwlORiXoa/bgZHLb0y6hscnR6UTjMwaq056HMG72t65FCtPSzsQeWaHZL2hNyGklzY7x2e8pPgRHXflprvfWpQOozblvtG/QPc84ekJ5otUDNe9KkpkVEjzfiyeHGdG3vTUr0JsLlcoR6DgUsZfhiy85Adn32NxU0dYZ5+pDrTKG1GTAWVNysznVJmesUNJa3Sc7DWnjz2+7fKjilz2QVDCQAAAADAigVDSR5sI0jqDANrGUbWl+aA+OC9I2NZS5VZGfpy9JtNqfsblGso0bM7ujL9qx6PrAaE+2sNCK39KdzlSwZ7SVDn3uzZCgFqQFr5wn/7IUkOcxcvrvNj++cxLlgnJ7V8fdjzDjkoww9Ddh6yjvTNvXlxCkUNJfbyt5plTGOnvd/QFzOU3DAouXKHVSZSjSAYSgAAAAAAViwYSnJQ3cQ1e1lNreU5VWoP4HxMbo9+s3SGklr+2fdrf42vZSiZk+Fbzf2WjtT9PGLYBgLv7I/Fi+v82GHwzcKwZ+60Sse2UZkrvH9FGX6E1EpzO59nLmOqRVFDydSOqlEsbUaSQ3WZkN+QZ79r9SSrGuQxgmAoAQAAAABYsWAoqcVlNbiPvmLrZRNZg097iUXKjIkQe+C8SYZzjqOa0VBiD15rDjTtgbF3oGufiJJ3WYf9G19cLl5c56eWoUQxq+LG2qC05ZpO6dld4FhhTRl+KGqm+eVZGbL2cQk3jh0odpS0pqChxA5XXuOD/ZvWnclnxPysOSPKgKEEAAAAAGBVg6GkBvbRv8UUP0I4To6Bs4fFMJQsnJ42J750S8cNHYEqp5U48voXWw6hwpW6WmZBhb964ox3P5G54erAuS754mXx4rrC5QWZPa5P49khvZvDOOy4oXq6TFwZYTg7Kn03WqcDGelTZQZGZjKPua1Qgh+58pDepHa752jkIsaZgoaSyZ22caYOeZ5RtLwEYCgBAAAAAFjVYCjJxF7OUFzrdqXNsFhuQ8mCzBzoc447ra00/2LH0l7TJf0HpmX2vDGELMzL/OlJGby3o+Km9dYhmfUN2O2Bc11aYkPJhRkZ3u4cKVxTtcMwf3xY+pzjmQOtWSubdo3nWlLTiB+FjAfnp1PioFXW3tov41lGpqKGkkqa1CkMJQAAAAAAkAMMJVlYm7i23NgjO3buyKGt0lmZYaEGxd4B6TIaSi7PyqG7qyeHhAPaXhnYNyrjx2Zk7vy8zEeaX5DZnIaX6d1dKTMobLVKx73DfiOJxh4439Anw2PjMl5IvmN6FymuZw/J1srxs0raAHHfgAyNjMvkqblqHGotzNYVBlG/m9znMWhd0y3DOfa5DajDj7qMB3pWzbEhj3GmTbr3pzyoAUNJ9xO+9K+hk8mlQRhKAAAAAADABUNJBtUTWNKOnvUzuT0alOY5snZpDSX2/Zb1vTU34iwykJx7fqusDdy2SVtl+U6rrN3QId33DebYw6KePUpqsRhxbfvZIu3319o4tb4w2MwfH5KtGyxjx/odMpk/Swbk9aMu44HN+WkZsmYQtbS0y44pz4MKGkrscJVlfKjrXTGUAAAAAACsajCUpHF5WvrXhQOdfEeRWhzvl3VmkOQ/qnW5DCX2MbXZJ/hEzOzpyPCvyuz+7nBGyfqtMpy6N0st7HjJeepNTRYhrmeHpCu4p1Rrg9+AGRm8IfKvAQOQs4lq7+GClhJNDj8aNpQY9GykirHEt3lvQUOJNj5k+lcHGEoAAAAAAMAFQ0kK9iau6XuNpDErgzeGv609I2EpDSXxGRvjNQf48T1aUgeSldN+is288VGdxdMinXtmzNVGWIS4tgbBLdvGzcUM7NOQGjGUaI6WMACv4UdZhhK5PJ59HLRtKMkTj7GNg3tl9IK53gBLYSjpeirvOikAAAAAAGgGMJR4WZDx+6Ov7vXNbIgN+Pe6A6XlM5TsqGy6me5HxIIaUFdmxnj9C5k/2JPbz5rEjAqbMk4OyssixLV1JHL2MdAalZe2rTN+aZVoKMl7nK1LDT8WxVBy63AynuxTjm4YlDxmseld1bhct20830lAGSyaocTOIyXNfgEAAAAAgKUBQ4kPe7B+46DU9T3Y9iOxPGO5DCXzcuj2yI8Wad8+mTqAmxvbUd2UNtU/gxo4RoNCvV/HbINf+mNLNtZ0yo6xWVnIGBAvzM3I+L4+GZoyF2IsQlzPH5KeKHwt7SpeUmLx8pyM7+ysvksgXxgmZeD2gdp7uMxPSn9lppJ7/HQZfoTUMh5MPpHjqOHL8zK5K8tYqLGWt7Wsk76jOcwJFyalz9pEt/3uIZnOOoo4OLp5WAYeGfUatBbNUBLLIyoPMakEAAAAAGDFgKHEgz0bpPtArQ1I01iQ0fuigZK7JGW5DCUqVFM7pN3c12rTp/noE2+Ck0GGZXBnr3VCSrtsvbdqtEgdSOr9XOwTYFLVJu03dEnPzuHswa2Ku8nt9sk8Ste0S9cdfbEThno3d0h7ZdPYtPAtRlyr8O20w9cmnXfsCE68CeLxwKDsuM86Mnf9Vtla2RfEbyipzLww7xmcQmROaxndNyB9d3TGjuBNGrnK8COkpqGkEjcqPTf2SN/uIRk1zxkfGZKBbT3SaZ+ys169c4rxbGZPtaxp/7ruGzSnHY3K0O4dMjDmMUTMDsmmmBFPbxjcLb1W3tihwtC1wTqBJ2Xmz6IZSoLyb8XBmg6V76N40uWsT4ZPGqcAAAAAANBUYChJYG+82S3DmQP6bOx9TlrvH7cGpctnKNHM7jMbr2ZpTaf0T82rlxiVXnMtayC5cHpYetY6fmSqXbYezPrMviAz+7ZKhzOrJV1tKrzmpzEWKa71pqhfbzNu0tV6U79M6mg83Guu+Q0l1SVRtdQmXbvGPafslOFHSE1DyU7LAFBDbRv7ZTzNlqBxNpd1lWqImBuX/o214z9S69c9S38Ui2coUTizX1zlfh4AAAAAACwpGEpcrBNr4saNOrBPzokZXZbXUBJwdlKGtndLx3prsLlmrXRs1DNMJmW28uLVk3K8/s1PykBlwOr5sl9Rn/RsjM8A0caS/hPGnzQWZmX6wGAwe6TDnqVgjh3u0jM5xmZkLjWhFi+uNXPHhqTPmdnSeq0J1zFryVDlpJyUMFyel5mRQem7o0s67JkQWte0B+nSt3dUZjKXmZTghyJPHpo/NSqDetbGDR2xWSrBLBM9a2hbnuOgDSrc0wd2qPzRXjXgmfAOnsgugfOnxmVopw6H9dvo9zeovLh3WKZPp/uxqIYSjV5+tbdXuq300PmjY3NfzaO5AQAAAABgecBQAvVjfzFf35tv4Hd5QWaeqnFsLAAAAAAAAMAygaEE6mZmd7RPR46ZITb2TBu90a25DAAAAAAAALDcYCiBOrH2cils7KhvOQwAAAAAAADAYoOhBOrEOmUl5USRVOwZJV8equ/4ZQAAAAAAAIBFAEMJ1Ik1o2RNn0ymnKDiY/5gT2WPknWPsPAGAAAAAAAAmgcMJVA307vWhYYSpfbt4zJfy1iiN3I9sFXazW9a1mySYU7+AAAAAAAAgCYCQwnUj33qjVLrBn208KiMH5+V+fPzoU5Py/jYcHCUbGfseN926TvGeTcAAAAAAADQXGAogcaYG5f+jW2WAaS22jb2yzgzSQAAAAAAAKAJwVACpTB/ajSYNdJ1Q7u0xQwjrbJ2Q4d0bO6VgX3jMjPHLBIAAAAAAABoXjCUAAAAAAAAAAAYMJQAAAAAAAAAABgwlAAAAAAAAAAAGDCUAAAAAAAAAAAYMJQAAAAAAAAAABgwlAAAAAAAAAAAGDCUAAAAAAAAAAAYMJQAAAAAAAAAABgwlAAAAAAAAAAAGDCUAAAAAAAAAAAYMJQAAAAAAAAAABgwlAAAAAAAAAAAGDCUAAAAAAAAAAAYMJQAAAAAAAAAABgwlAAAAAAAAAAAGDCUAAAAAAAAAAAYMJQAAAAAAAAAABgwlAAAAAAAAAAAGDCUAAAAAAAAAAAYMJQAAAAAAAAAABgwlAAAAAAAAAAAGDCUAAAAAAAAAAAYMJQAAAAAAAAAABgwlAAAAAAAAAAAGDCUAAAAAAAAAAAYMJQAAAAAAAAAABgwlAAAAAAAAAAAGDCULBXH+qSlZZMMnTV/K+b2bVLX+mTS/L0aWY3veDWkGzQDczJ0S4u0bK+d08iTK5/ZA73SeW2rSscWaVvfK4fmzA1YBUxKn0rXTftI1NWFr45eaWlN3iwFTx8fNPn7MQDNCIaSFCa3q4KtGg+/6hiQLIGhZP7EsPRt7pC1a0w4r2mXjs29MnhgRuaNG5k/JFvV/fbdM+bC4uJ7x5nd7dKyZqscqgSqUUxFnEgno1uGlIuQ+ee3SmtLuwycNBfqgEEpLA0YSvIwd2woVu+1re+WvgPTMn/ZOLC5PCfju7ql/Rrb7YwsmNs2uf29PC/TB3ZIz8Z2aTN1Ttv6LunZPS5zvjB4WFDtw7qWddKzZ1Jmz87I5Mh0pc5qFsqoOxtjaev5cmEwujrBUAKGZjeUBO1Un3RvWKvqxrDObFvfId33DcrwyWpnvPy6s6ChZInHKAC1wFCSQmgo6ZaBsXEZT8gyPORlkQ0luqPdriu+jdowEoZzdN+A9G5Wnff7RqsDgYVx6bumVbqemjUXFhffO84+1SWt1/TJuG90UhemIr6hT4YTaaU0NVt5/4WjfdK2pkuGTpsLdYChBJaGRg0l83Lo7lZp2zYe5v+TA9JxTUcTDR4bZV7Gt7er926Tru1DMmrK+/CursBg0b5z0jGAzMnwra3SsqZT+vaNhm53d6t6s1UNEuz6sIi/szK0UaXRNZ3Ss3u4UucM7+6RDtXZa711WD21Fgsyep/ywxroxzg9JF1rqh3X6UfapfX2Q8XboAYpo+5sjKWt58uFwejqBEMJGJraULKgxjSmTdOGkaDOHJWh3b3Svb5Neg9XW7Ty686ChpIlHqMA1AJDSQqhoaTEwfCiGkpmZPCGsKM9m/ML5lKxNEYFUxGnDTRKBkPJEnC8X9YtUXo2LyUbSvSAe1UZShSzkzLp6ZjO7OlU8dETm7W2MNYrrS3rpO+YYz4J4q5bhs+bC5oC/srcrHfmyPyBbuV2nfSfMBdSqZHOTWIoWX6Wtp4vFwajzce8DH+9RdUH5s+68JVdDCVXJc1sKDk1KB06jZfF+JC/H5NF0J56/SijHAOkg6EkhZVlKAkbukYrosUAQwnUw/Qj61bogKhM8ncwyJMOQX3bKjumzN+Kye2t0nLDoCQm9C6MSm/egYLH31QCt3k6cOV0JFc/S1vPlwuD0aZj/pD05CqfWfjKLoaSq5JmNpTkbosWgzLat3k5dHuKH6WUY4B0MJSkkNtQcnZShnb2SNf6tqAi0lPb2jf3yag7bc1TiXoHN/PTMry9uoa+Zc1a6djYIwNjc9Z0bxczo+Trwzm+MqY3inNHB6TnJrN+UT93c7+M5630L8zI0H2dsfX8/SrMs553TBvULZzUe6xE6/xVPG7slaETeb6bFuhA+xozfW3NDpnU+xfs7qlsqKj3eOneldxnwBv+Cype1+up9vFZPeE72fscdEnvPs8+B1EYVCrP7OuVziD9W2XtTb0ybPLSwskh6bXSp/O+IZm5EN6LCMKmp/sHezFsMs/VeXJAJk1Uzh3tD6ZbZr1jgEpTOy/6wx7G/ab9Kn/G0i8Muy/95sasfBb42yHd24dlWjudn5T+W6v3KnIayDx5NUwnf8clLQ8WeeeegyrAKrwD0Tuv65dp4yLYC8PKS63XqndMy0t6dsDleZnUy0CC50azEPwdjHCZXXy5iPd95mdkdG+vtSZZp0mPDE65aaLrBPPM08PVPGZmLRSNx+CazoNOXLZe2+nP+86+Ia7q6sAf1eW8S4YqUTQrQ19W/nk7ayae7SWKaST8TScr3iLmDu+IlYVQ0W/CutofZl89np2OqeTMq6ltWJG0VixXPV8orMHvw/uu3PyY732y02t2pC9eJ6v60K3bA0qpV1TVEOxnFoU59KfrjgFVhzolwMRVh9Umdql2J6irY+h3CQ2Isbo5aHsK9CMUufohOn1MfWtvghzUyZoa/ajZAyoOE/WNU1YLtAXxMupL65Dc71agP1KEWNtv+hDT8+P+8Obs2xatA+qpM+KEca77HDI3Xu0v6PjZPRn+3mlTgv7o0WR65O6/a0x6xNyqPBX1zyp1zun4s1PrU02uPFZCnJkZJd0HctSznrozIGdYk0RlRMWBk/87dZ2TSBan/Ki2rOfGKM6r0vfLK8c+qvksV9/27JBsUvd95T66FzPm1KrDoGnAUJJCXkPJwpgatNzaJ0MjkzJzdk5m9AaAG1SGX6d+a/c5PJVPUPnZz7g8Lf16sH3TjmAN4fTxaRkfG5bB+zbJ1hqFZ27/pqDyab9bNXz2FPIE/kZcGzRaVcXftWtYxtVzp9Vz+zeqymmNCnOtQcHCpOxQ4W65pkv6D5hwjwzK1g2qIVm/LhGPifdWRIO/jnsHZfSYev6xURm8t0OFqV1VLrWGL411oMNr7dKhwttx+0Bl/fvo3q3Bvi+t95ulC4ZE+HVHw2ckCd5JpcnmuJ/h3gXOMqkgDL0yuLdHNlX2RYjSoFdGTw5J942qoxftP5MVthv6ZXDXpuqeCUFaqDx546CK1z7p3Kjza+jP8M7OIN907nUSOTL8bNgqgypvTx+frIS9XXUKq88M4751Q4dqiLoqez/osO+4SVf8nTJodTrmD/YEabp1r3IXpLPeS0cNFm8dkGkdH5cXZP78tAzqQe2XVXjPz6u/laxBQ968GqaTk9YGXx4s+s6bnlBlXXWaojW/o4dV46tvX1aDcr0Xhl0eDvRLl2qo3XQPwnHLgAxtV41wtL/QyKgZiEQdjGoo59VAPTCSOFNove9zelC6TJ6ZPj0vs8dHZeDrusPhxklYJ/Q9pRrzazqkZ2eY/4aPhc8oGo/BtTUd0qHjxt7jw5vX9JciFVfre2X41FyQ1nPHh2Srrk9uGZSZWkXfy4KM36/rYMtwZd4xbd1zUN/XrD98/nq4MCfT+3T5dPc+8XBB52+T3+8fDfO60kKQR8IwFzOUpKejlwJ5NbUNy53Wy1vPFwprUA+Zusdodn+P8lPVZ6eMG0X+90lPr86bOqXtpmqdPLpP1dHawL1e5TM7/suqV070B2Hu3KnbBxXm4+regUHpvXWrHLL7DqY+bFGDzKjdqbQliX5B+C7tqh1o21BtpwL32g/VhuXZkyx3PyRIXxVnyr1+3o6g3RmWSd3W5OlH6XI30qv8aJHekWoah+VO3w/fPW9bkMdQUuzd8vdH8hL2Ee28qvK+3ndpfXvgrxvevH3bonVAUfdJwjjv2DUo/bfG+0Q6fTr3Tqv6vNPy298X0eTuv0dlT4W72q8akoH7+mU06poH6bZO9XlVuuk4VmVr5lSYb7zpljuPlRNnwf5cuu9Vy0jgqTuLhDWJKSM6n5m6ZFLl/0mrLhn29Ecq+TGoi8NZn3YbOa8fWlo59hGGO2/fti5DSVodBk0FhpIUGlp6o/dXUA1SbHq2p/IJKj/7Gb7CVIDZA2EFEFg8deWvOsiVCqOCpxE/f0h61O8S6xd1h2Odp4J3mN2r1+3HO5ABF1TlFoTHM5Cyr5mOzbpoL4UK4dpDPcDPbgZMRazey6dk5eQ0AsE13/NFZp7oUPd6ZdS6EQt/xUiiBnX2F8Ao7nxfqU1HNWY5jsKwyxmCqTjcqq63XqPC4HxhTA+b58uB3shTPbP1yyqcsTyxIKN3q3hyliTofRB0Z2HceWa474LdQERxr+LUTSQT9o49VZ/zDUiNnz53BfJqGBdOWhsSeVBR/J39A+HQGOSJD1Mv9I5VEyxKr8SgNMA8x3TCK0YSFZ9unvK9j5fzw9Ktnhd8jasQ1gm6E+UbrBaNx+idkuuhPXkt+NIVjxPNwmHd+VEdqOyM4iUavMa/zHjqPYsgX/qW5Vj4/Y2I4tBIdXyGEjN30oincxXjZ+K6xvc+2enoo0heTW/Dcqb1MtfzhcLqcnZYNq1xynuh98lIL214c8t+0EbE6/Gy6hVfmfUxvWudGsQk253oveP75ETvkqw/w7ZHDWSsDSO9FOmHmPayZb16D/d5eftRxg+fu8JtQayMetK6jnfL2x/JxcJ40Bfz9UfCfZfcvJmCp29btFw1VA4DonrA2VdKEcSPKqddVp8jwNMXScXzjmG616hXC6Zb/jxWRpwpLs/KcGDEVe7XrA0+yE3Oet7HU3cWCWuS9PSKxgjxfm9GXelrC0spxz6icHvqXF9+qstQovz31WHQVGAoSSE0lPhVs0FJLRS+jpvVYYk6IDftkHFfBZaHhVmZ1F/ozVQ1bUk9FCvkyUpId8ASGxQagngIloSkoS3Vyk3K4Hd8m44z30DKuqY6hfpozGhasE3ottaAyVRoKachzNiVsycdwmsp+w5kpVvFWq3ix63ogndq9VbelfDaHc3UMMyGSwY8HZxoMJkMmye+LofTa30dhZk9uhG30yjsvK17xPPdPGoMKgNt8y56Wqi5UsXcsxq3sLNf66uG+Z0nTxXJq1FcxNLakMiD9byzd2Bn1tJ6lzuEZa91Z/WpYTjSGuxq/FW+XCdOcglJvk8a6Z2QNINosXisuveV2YR7X3nUZJXJLGZVWqmOV/Jrke+9q9Q0lKT6GzEvM5U6J/x6vVZ12DvuPeQxgLkky0lIGGZv59D7PtnpmKRYXk2vC3Om9TLX84XCamO+JieMDoXeJz29vHWOyonBctpK2pRYrwRGGD2jZFzSuxlmAO/Ne5H/dj3syS8VfO+epFA/xNQProE1IG8/KvDDN8Cqoy2IxVPyfet5t7z9kVxM7VDtbkp/RNVtXTnSJ8DTty1aroq6T2Li3NfnCJZGdiQ/2kXlKSU/x0i8oyl7tT7wFEq3InmsjDirsjAbLjeKlncn2qgGw5rEpJe37jJjBM/sT19d6U2/ILyNlmMfGfksumeHJ/LTV44SeUph8ou3DoOmAkNJCkHj1eI/HjhmhdVrYfURWzdU96GIlCwUvo6bU8HpNZd6Oqb6fZueNj8yk2MtnZ/544PSrSvD2BTeZCUUbJxphTuprEo4rIzSGiB9FLC/oaxeCzsR7jNt1eoYmEqr5kwFhScdvNciUtOtUzpv1GFb663owndKD3eQv+zGITUMngo5Im+eCkjvrCZ+YzbH8qdFqKo/GeHz3tN7sJiZT6lfNdLTs0heDd/LnwaL986mPHh+X5H1u/T00pjn3Kjymv7d2t7k11qD1x+9pnpvn/Rs1FNHrecrxfNBet7QFIpHRdY7Je6lGBRDI6B/YJFKyhK4kPAd61p6k+lvBicHgnTLO5U8mZ8yOofmXpF0TFIsrxarb5L3lrueL5QvLWafUvfWqLzofA0t9j7F0yueJ8usV9T9o+GSHb3Pgt4nYPSUU9BMfZial4L4tY1EWe+SL18W6oektpeGPP2owA/PAKvhtiD5vqW9W633TiGzP2I+oiTSJ2fftmi5qrccVslof1PjJ+U3ud4xu49boUi6FcpjZcSZh8vzMr23O9h3o902JjQY1iQZ6aVIhj+9rkxP80bLsY+scHvu1WUoSckv0FRgKEkhNJTUqHxODQZrids29svwsRmZi9bOnRzMVSiyKriFWV2B94QDymu6ZOB4fVbHcMBhW7nTGvFeGY3Cn1DWs7MbEd87utfCRrxLBk/4nh0quYTIxlRaS2ooaZXORyZlWv27NbFeO3qnFD8VK8FQ0rVn2psWgSpZomBjEqEa6ZmxIekLOrPuV4309CySV8P38qfB4r2zKQ/2WlpXlrEjPb005jlrOqV/atr/VduQ8Eev6Q1mO+m1udMyGz17fjS1E5LWaSgUj4qsd0reM2un16s0PR2W84XTYdjbU2bPeIlmd7lL4CqYmVlZ+dS3TK6mv1mkzwaLk5afwnTxh9mXZtnpmKRYXi1W3yTvLXc9XyxfGoLZF+uk72gyBYu9T/H0Cr60uoaSUuoVw+UFmT0+LAO3h9Px2zYOyHTkh6kPU/NSEL+LYSjJ2Q9JbS/jZPajAj/SB1j1twXJ9y3t3XK+t0t2f8STPgX6tkXLVV3lMEZafalIjR/Pb3K/4+IZSvLlsTLiLI0FGb1PvVtiRlP9YU2SkV6K5MdUX30RXktP80bLsY+scHvuYShZtWAoSaG2ocRUML71xWaH6VqFIlcFF20iFZuaVoBEWJKVUK1BfTZm6Y13epo/HhPvnfJVOT+m0lpSQ0kU/mgzStXQ2JVu5juZ8NpTEVPDkFFZF8pTvsYnJPmbsGOQNu06TsHGxEO494a923d6ehbJq+F7+d1O7tSbcS3GO+ecpmtITy+N8xyzzt1nQHD9CZdTedYEe4/CTc8bmmLxmP1O3nsXpmVAGxRUGLT0Tv49e83pBXmoGDOyZ3wEYfUtrzFxkliWltPfdBbRUDI37OmUZadjkmJ5tVh947m3zPV88XwZpn/qcqtC7+NLm/Caf7lKytKbUuoVD6dVR17VLdVp6tn1Yeh/cumNP+/ly5eF+iGp7WUKvn5U4IdngNVwW5B839Lereh7R5ilN95lIYkBXrG+bdFyVdR9koz2NzV+3N8Uecfs5eUVCqVbkTxWRpylk1h63WBYk5i4TxkjLPbSm4bD7f29516WoSQof04Ys/ILNBUYSlKobSgxleeXVSfaXIkINhDKUSjyVnC+5St5CTfqsgdMnkooGoCpQp/dofcTbuaq3s2NiAvj0qcqKjfsifeO1hTXPSAxlVadHejMCitPupn3jMVf9E6+dZnBV0pnw9XUMGRU1oXyVHpn1febIA97ZsokKdiY+EhM/TWdGE/ZKpRXg/XK66T/uPk7IiVflvPOYac43ykeWemlST5nQb3TOo/frj+RAWPcKU9h2PydEG8DrykYj1nv5LsXnMZwy2B9ZV8NZndsSJ9pEyPYpC85OyBYWuHu55DXX30v7b56XqKce0nLT8bQ4jn2PQxzwXT0UCSvFqtvPPeWuZ4vli8XVB9A1QeuAdym0Pv40ia8pjcbdJ8RlnPfZq5l1Cs+TF6z8mBYHyaXHEXvHc+XWXkvZ74sUrentpfpJPpR0YD4qPnborG2wPO+Zb1bHe8dYDZz9W00mqxLivVti5Wr4u6TZLS/qfHj/qaed2z37kdUoWC65c9j2fGSL85SuDwjg3oJuV2WGwxrEhP3vrjJvZmrMRyr/JuglHLsIyOf+e6ZfmziQAZV4sa3hUvvMJSsTDCUpJBn6U1YQelN0UZl5mx4/KY+GrDtpnBPgcKGkrPD0rM5PMpPH+c5f7p6/F/mNHRtydRfYbeFx5QGe6mMDMmOYEqtCt9e+0upv9Myuz9cq9hmHR0bHn/WLe27alTB5stb7NhC9du+m4ocD7wjmB7bah8tqDdF3NYjnbf7LdFVTKWVssnf+NRsNe58lVNWhZUn3RTRZpv2qQjRO4XHA5uj4szRj4nOdWoYMirrnGELSe+sen9jBoot9nF4SsN6z4ubeqzj3Io1JpOPqHyqjy0Nprrq4/jMcZqqMbOPiAuNb/oY4UmZPT8r01Ya5s6rpnPYsl4vP4nyZXhsdccG3RlajHdW6N3lg2N440f5je4bkN7NqrOVs5Ppf44ZwDmNv+uPzo96oNV+96BMqrpkTuW98ChIVTetc/NBet4IKBiPWe+UvGc6rHcfqmMvplkZ1Mf0rdV7EJh84Mou+5W466wc9Te8W+UZHU+x+rWAv766d2w02CwvqM9yDaLT81NYDsxRrrEjPTsC/wulo48CebVYfeO/t5z1fJGw6iWr2iix41h4ZHVM1hKX/O/jS5vwmn08sC5bWccDl1GvzB3oke7gSPNwSd7scZOn9PtOVUtBpT40R3pOn5qRyaBd13VkvP7Jznv582Xuuj21vVTk7UdFJ8HctENGT80FdWRlQ+CG2gL/+5bybp57YV/Vv9GnTXg8sXM8sK7/PMcDh/knX9+2SLnSFHWfJKP9TY275G+KvGNlRpLKD1v3Vo+J1eV8MJqlUzDd8uexxuNMu1mr/OzbW33OqD70IXh+Z3zz2wbDmiSM+3UqXr3HA1/j7r3mKz/maH4V1h0jqu94VtVFJ41pp5Ry7CMjn3nvmTAG/VaVR9Q7Tqu+QJCn9BHDbp7Kyi/QVGAoSSGPoUTvszC5N9o9WumaduneNS5z2kp7Qx2GkoUZObS9Wzqu1YUt9LNtfZf0qsHiXFZnO/rdhrWqITRhWbNWOjarBnnKbT3TOy3zJ4alb7O1qZV6n8CP4+73TA/z0zJ0X2flt22qQuwfU88I3jsej6kV+9lxGbijq7rxpH6HjaoDetge7PgwlZb+jU/2F0hf5ZRVYeVJN0P4JcJpdIJ3suMlJT1Tw5BRWRcIW1a6p/5Gbwa6u0e61oeb4ulOxdoNXarBGbVOSyjWmMwfG5Ceje1BhzHwM8in/TJ62klh/exd+uQQ89w7DlXTUJE7r6r471eDiOh5lXwZTIVcjHc26I3SDvRJt1Um9eC2Ww1wpq0vtOnppUl5TvRF98bBylHPPn9mR/rUIN7UJSqeO+9Tz54PZ+vE80GOgUyBeMx6J9+96Ot5GN+RVLzf1CtDJ7NKfhju+O8cubMPojrbxIte5tObOIGpgL8qv0yqgW33DVaeVgPZdlVv7Tjg+ptGRn7S+WhfbyW81XQMDUyF09FHzrxarL7JuLdM9XyRsIbtf4rcdMr1Pr60ia7NyIyO/6jO0f2I7cP+PXFKqFcWTh2K151Bfu1VAz5PvjH1YSX/qbB13TcokwmnWXmvWL7MVbentpeKAv2ohZND0mtOCNTPGbCXptTdFqS/b8Pvlrhnnp/neFjF3Fh/NZ9V6pLZwI9YeKN6MkfftmgdUNR9koz6MjXuPL8p8I4BblnQ5Ual3Wj0rELpZsiVxxqPs6jM22Wi9dqw3kiU5QbDmkTHfbhEce6o6v/dZOounf/uGJDxRDFJKT8XZoIxRtjOqrjfXX3jxsuxj4x8lnZPP2tXd7UtqOSpSdmhyjyGkpUJhhIAAFgWFo4PSJfqsNlfewLpL9d6o1/f1H+AVUExAwJAAjPdv/bJWgAAUA8YSgAAYOm5rAaKazL28Jgdki41CEh82QNYFWAogQYJ9mdw9lcCAIDSwFACAABLjzm5pfewf/5ruCSnI76UDWDVgKEEGkNv8Ovb7BkAAMoBQwkAACwDep+N1nCT2DG9ua/ZLPP0tIzu3RpuhLw9xykRACsSDCUAAADNDIYSAABYHhIbrYUboHXoUyv0ZrEAqxYMJQAAAM0MhhIAAAAAAAAAAAOGEgAAAAAAAAAAA4YSAAAAAAAAAAADhhIAAAAAAAAAAAOGEgAAAAAAAAAAA4YSAAAAAAAAAAADhpJVw5wM3dIiLdsnzd8AK4+5fZukpaVPqrmYfF0Pk9tVnN0ypGJvtUA+gKUib14jT84e6JXOa1uDY73b1vfKIU46duAIaJdkG79SoLwDXI1gKMnD8X5Z19IqvWML5kIzQiWuCQaIqmNiq219h3RvH5bpeePoKmX+QLeKj04ZPG0uNMLleZk+0CfdG9ZKqx3P9w3K8Mn6I3olGkrmTwxL3+YOWbvG5Llr2qVjc68MHpiRSkzMH5Kt6n777hlzYXFJGkpmZGB9i7TefagapoYxaWPSPyHr+fPPb1X5pF0GTpoLhaF+g6Uib167uvPkwrE+1S9aJz17JmX27IxMjkxXynuzMLO7XVrWbJVDJbf9vn5GVXb7haHEZTkNJY21Q7RBDbPE/aB6aLyvAqsNDCU1WZDx+8MvJi1fHy5xkFE2VOKasAPTLQNj4zIeaFSGdvZI5zXq+ppNMjRrHF51zMrgjTpuWmTdrmlzrV4WVDyrDmhLm3Rpw0gUz7t7pXt9m/Qert+guNIMJXqw0K7itG2jNoyEeW5034D0bm6XtvtGVUwZFsal75pW6XpqaTJg0lAyK0NfbpW2bePVMDWMSZsb+kwecDQ1W3nWwtE+aVvTJUN1G+mo32CpyJvX0tzNy6G7rbJ2ckA6rulYZR3vBRm9z61jLE4PSdea6mBj+pF2ab29TCNtPmaf6pLWa/pkvLxKLyDZz7BlGcgxlCRYTkNJY+0QbVDDLHE/qB4a76vAagNDSS3mD0lPS6v0PaJnlaiB9llzvemgEteEHRhPIzw7JJvWtEjr/WUOFFcQJ8L82/9Ij7SsUfFz2Vyvh1OD0qE7f4vQ2OU1lASzY5Y9r8/I4A0qbGqwMNtIfC4CSUPJYmDSZtGfo6F+Wwqao1wtN3nzWpo7x1CijQarzlBSI46axFCyWKT2MxJgKHFZTkNJY9AGAVyNYCipQdBxDAaW09K/rkU69zarJZRKXJPegTFfwNbsWIENdONM71oXDmiN4a+hZWTH+lQct0jfMfN3ieQzlKiByO3NkNfDTnAzljkMJVCcZilXy03evHY158mruzxiKKkfDCUAsJLAUJJJuFwhWqowu7dTWtb1S3LhQliBbto/Jwsn9X4F7dKmB1BqQLr2pl4ZOuH5jjI/LUP3dVb3NXBUGYRenpeZkUHptfZAaL22U3r2Tsp87Ct2VImPy9zRAem5yewdsWatdN4xIOMp7bTrtmNzv4y7s2b0wFgbGC7PyfjunsrmbXovhu5d6nk1v6abAaVP1iArq/ORd+CX5cf4NnXPYyjJHQcm7e0N7HoOmrRV6Tm8vVva9RKfyJ+NPTIwpvJE6CLExGHX+raqO9/z6slTaSyMS6/KO90H9G/MUrJGvu6ZGSWhfznI/c7qrWsZSk4PS8+Nxh9Lbkd0afK1mVGSa0leSofZeXbrtR05n22YG5d+T94YT5SX9E5ePH+1SfvGvPnL+JnHUBIY1+Iz8oK0vnVY5i7MxMqOrt96902n1G/x8IdLn1pVvMYN2EH6b7TiZUO39Kuy6FIJg06HXZtMHaviYPOATJoomDvaHywpy8obZfmjyZceOj+1yo4p865RXg+e6cnrbh7X7m7olr79Kp71/TzlKmderacez/fOYR4I6tz5SRmI3NttspOX2tZ3pealdH/y5jW/O5mfkdG9vdb+Tbpc9sjglPM+NdqUsC70z2JN1pPmWu7ypAjyqtVmOUob3M8d3mHlt0hROLOMx746UF9bJ/0n1D9VHuyN/K3VPuXMi6XEk4esPB4neudZmRuzyn9GG1jo3XQ8qTw8eEfUlwzz2sBRT9rlzZeas5PBkuVKmx3UK30y6ixHqIRB9VMnd0dxadIzhShNxlXbNZAn3Ira9YMpi8F9V1Y6edqhgAL1hu5jz58YqubV1PqqnrJQoE5XxMPhqvre4T5qUfyFeapLjwvO6t6peS9dJkLnBvNx0ZeewQzl+PX87Vaybpkbs983fV/B+vsqIbn7hQ31VUIaDSs0DxhKsjg9KJ12ZRD9fdz8XSGsaFo3dKgC1CV9+0bNWtVh2XGTbuycDTT17BS9seKt/TJ5el7mz8/L7NgO6VQNxtpto06hm5XBjZ3Ss3tYxo/PyvzpaRlVDZIufPHKxlR269ulfX23DBwYl8nj0zI5MihbN6gwrNkkw06FMKsKf6sqwF27tN/TMq3C279RNYzuXh5BxdEuHRvapOP2gcp+BKN7twb7M+RZzrKg3lG/Z0WzqmOuftu5p7qpUz0dbJdUP8yMILcDViwO+mRIuW/b0CM7gjQeVumn7kXpedOOIG6mlT/63uB9m2RrZEjRXJ6VoVt1WnTG8kjwPBW/fcfsWCyYpzJYGOtV79hT2dAu/Ltbhs+HfxdnTob1e6gwb63VsSz0zqZBiqVf1DkxVy4vqPwzKr268blflZUoP1neLGW+ntuvn9Ui7XcPyXRmfHo6CFHcqPTtV+U1yDcH+qVLNcKtt+ZYznN2OFxOtmGrDI5Mqt9Pmt/rOsAtL048GqLBX8e9gzJ6TMXVsVEZvLdDvVMybZIYPxsxlKzpkA7VGe/aPiSjJv6Hd3YGcRqfvZcM//xRM3B1loCF6d8qndssP3d1BXVmu/p9rJTpMNzQL4O7NoV1rHYf1Zk3Dqr46JPOjarcj2SFrTx/8qdHmJ/aVf2g6yNd31eeqdN+Ta+1L4OeKaLCsV7nE9MumL2bNu02JoZa5apAXi1aj+d/5zAPbHpiSPp0njH7I40eVnWQvn1BxYmuh63yoMtyhyoj8XSv4U/uvJZ0F6D6CV03hmkyrdr32eOjMvB1Xd/F839mm6II60LnN4ZkPWmu5S5PUZ7oleFTc0Fazx0fCvPOLYMyY0e7ywWdN6Zl8MvKrZVXFoI8EObLRJwE+AZJ4bW+p4Zk0zUd0rMzDPfwsXi5iFEgLzYeT36y8nic8P3WqX5ZW5AvVXhP6Y1vfeVUUfTd1nVKp/K7O6pzVP7Rhj9teKh8xInImy8VC2Mqv9+q66tJmTk7JzPHVFnRddk69c5WeIMw3DIgQ9vV+6mBYLBP18ho5sb5YZroNsqEO1bmVRnbH29N8tYPC/Omzoo0Nyk7flfFm71XWFDmnPctWG8EfWyTPpMqLXX/wt8nq68s5KvTFSf6wzrpkUmZDd55VsaDPLxW+g5bCWDcde7UeUTF33Hl54FB6b11qxwyfZaZPR0q/L0yavu/oNuDdbJO9Zs7rH66JnBvLeEu2m7Z7z1/sCdwt3Wvqv+C3+p93nZIz60DMm3l98b6KkX7hfE8UrTOaDSs0FxgKMkgWK6gOrnVIjAvw19XFWpiAGUqUF243Db2wqhsVQXJrmgWDvd6KtWo8smzNCQMR9wCHIXBMwBWYdAzCmKbeJ4/JD3qWmKfCWNQiL1jUHGo33s2gpx5wlPB1iQcaDfawfaR8EMPAE6PVwbmMct4HXHQsl75fcFcizirOnnqXq2lKJVTZ06ZCxWiTmu/1TAUy1PpePKseb88HcJUVIduOKj4VRjXrJVNqvGYnE1mgmLvbBqkWB7wDUYyOiDLkK9nD4SdquCrmO5cqk5+OGiwSesgeNI31ylbC+HMINV5GnXz4ylt0FXhqWUoMQa+5Pub+iVW9/mI8qhfsfKQ1vlQ7hJppUIzerfy4wY1YDNX3PBXBq6qDMTCfn5YupWftgE2IuqQ2XVAFIbE7Ci9Aafyv/XLKgyxtPSFrSR/CqWHKQNq4DLupn/wzBZrU+Vk3vOTXq6K5NVC9Xihd47ym0p3ZwaRRu+D4YuPSh1UaW+z/cmd1xx3mZh8GRsEZrUpijBPxctMRLKejK7lLE/BrMBkHRP2TTbJcK2skvruGXWzNx8a9wUGEEXyYsPxlEKYx/3yvl+uclrPu/lmdpq2Vc9WSrRDDr58mYYJg57xEBGFIZdh35AebhX/9znhrruNWpDJnao+cMuWpx0qXm940sfbJ6uzLOTKKzqufO8fznJt3Vl9pq8MJAhmiLTG2uygLlij+jN7u/xtcWSAqqPdst87V9++0b5K4X5hPI8UqjMaDSs0HRhK0risCrQqWO5gMqw83QGUqTgSU9c0yQ5FWsUVXs/TSfFVLuY5KVNWg2Un1hRl3SC3WLMMbAK/bYNNUHHEG8gKnkqlFoFl17XiKsLOh79Cz1WZKkI/kmq7sVeGTjrVVh1x4B28moqx9aYdMu4xFoTozovyM+0dlP+tsamMxfJUKoERJxnuwAiYo0NYi4XZcIpucKqQek7HvYesDlPRd/aVDd+7pndAli1fL8zKpP4KYpYv6K9Th2L52+0gmLjxltfQrd3ZSTIpO1T91OrNA7MypL/2+uoH271n+mxEvrrI+Jly6s2MbbD1xGfWM7LyQeVrjYoft7SF6Z+SbqZOX/dI1WCcGobL40Ea+IyR4de3eD1Vij+F0iMrj/jymjZKbpWh477WISL8XbJcFcurherxQu9s8oC3oxl2eO20rWAM2dXBYJY/mnx5zXZXGzdNFKb+8bYpiuj9fXk5vJczDyoS7tPqNxMmb50YI+3d0/KQxhMH5lpsoJJJsbzYcDylEOZx/6k38Q8GyTBVceOjnnfzt3WhwctfruK4YcjA80EoDEPyo18WWeGWozr/WeGus40Ky63H+JbI93XUG7n7ZGHcFi4LufJKWvnzhFHFoa7DOneOS2r3NNE2mg8x2hgSpEFH9WNXsM+dtey8jnbLfu/QOFhjdnKd+SCieL+wgb5Kg2GF5gNDSQrh8gRVgFIUt4anVVqa5L20znzQcbaMGRFzY4PSd0dXMO0rFo5aAyELtzBPP6IGyrZfCeXoVGmy7vnQp8+oSjsxLVRRqIOdQqIDo5cr2esyLEqLA43eKyKYtaKNMj0yMDLjVPphg5yWPlGjXI2XYnkqjWBfndg72VKVeWIZWZ1cnpfpveGSsPZKY1v0nZP51P+uYWPr83fZ8rXF/PFB6daGo9hsGbeDYOImET5LWelrOitpHdzAMFqjfgjrIet5CdV6f+NnjnLpi89kWldJzQc3doazZdb2Jr+6KcL09/tZ8cMaiKSHIdmhi/D9pgx/iqVHur/eexdmZMjMAGu9dpP07Zv0dJrD3yXzXbG8WqQeL/bOvrrAYMqD349Q1fjI8CcgX15L9UfvMbG3T3o26mWT4bOTYVDUqGPC/OG/XywPeu4Fnfn4F2RNOMBOGcTGSIvDtDyk8eXZrHzso1hebDieUsjK43Gy3s+91/i7VfAYNXLnS43ec00f939DdW+8SElDSZ54qFIk3HW1URfGpU/FY7UfYuGWudLqDd+9MsuCe88Y1RJtbzijxDX86P2x9PItvVeG3rNw9JRbwM0Mlcg/s69d0Dczsy4qH41VHAaznkwcNt5uLcjMPjMrN2V2cqN9lUb7hUXqjEbDCs0HhhIvZorU1wcSXwu0BvS9GoOQKp57C5OyQ89AuHVQpvVmSpcXZE4NrjataXWmQM6ryqtdVR4dwfo9va40Wn85mmMgZDP7VJcqoNXCHFYcvTIaredMyKqosjp0NTp7MVKnpIUU6WCnkb8DU2IcWCzM6g5GT1jpX9MlA8cjP0wnKCV9FsVQYhq4jm3R+mVbw9Knp2jW8qMQprGtWOeLvrN6s0SD5HvX9A7IsuRrD+GAw/4y63YQTNzY+0G48g7ODDUMJcnykozHsEHvksETnmcbJZcQ2Rg/c5RLX3wW6XxUnrWmU/qnpoN1/L7p3ivfUJI3PdL9zbx3fkbG9/WFnWbdrhy051SEv0uWq2J5tUg9XuydfXWBwZSHrj3TXj8CVYp+hj8B+fKa1x+9z4tu24P9DqbN3gFK86PJNKlRx4T5w3+/WB703TP7TK1XdaXqV+g4Xjgdhr3dO3vGJS0O0/KQxpcvs/Kxj2J5sfF48pO/n5H1fu69xt+twuyQdCm/K0aNIvlSL91U/Ze2jf0yfGxG5iK3J1Uf1fZTkTe+bIqEu3gbZWbPqTrGuxTILXOl1Ru+e2WWheS9hakdZkngtMzpfLEwJ9N7wtna7n6EAWqcMXt8WAZuDw3mbRsHZNrKT2Fch0ZSd1+7yqmJ+t+6jbVmI5fWbumDK8aGpC/44BifnVw8H8RptF9YpM5oNKzQfGAo8RGs20yfEhtWIp61i7krUMXcIdm6Vl1XlYZW2/pu6RtxJgKnni7iWH8DzHO80wLTlt6kd9JiZHXoanT2qiyozoVnzahFeudDd+rc9/WTvwNTYhz4iDZlq8R52hcAg/Lfu/SmSJ5yCdYUp0+LDWabuBuENUh8OUHRd1ZvlmiQfO+a3gFZ+nydgim71U6l20GoETc1MUtvvNN0TZz56gc7zlK+KufH95wUPPFZpPORCL9Zc+wO6jLTP3XpjS8M6R06329K8adQeqT7m33PoDql47o+js0eCH+XLFfF8mqherzQO/vqgohwkJnP8JvljyZfXvP5E9Z/nn3Cgo0RnTSpUceE+cN/f3Knalty58GUexemZUAv0dNpruQ/TS+NtDhMy0OKueFgoB3PlznyaoxiedH33oXjycPiGErqeTf/NH536U3+fGn6lvY+IRGJNi1/fNlkhdu/9CZ/G5W2rLtCosyVVW/47pVZFvz35p7fKmv1MwLp03GSJxN5OT0UbAQfm3liPlzpfVAmt6v6xV4CpuItnEXimbFSWrtVJdwXyvqI1mBfpdF+YaE6o8GwQvOBocRDOIBUGT+twxB1uCuboxatQMONpvTMisxOydQOVTmphumo+TvCdNziDap5jq8yyNjM1T0FwktWh65GZy8iWjO6Yyr9aeGsF09jHizXcd/XTxFDSWlxkII7i0dX1u5mkiG6g2SMKpX8UDRPuZg1pllxZhpG2xA3NzUsw1O1YjmFy6oRvVGFyzout9g7q+cnGiTfu5pjeVX5SbDE+TqNmT16yZOdl5MdhChu6tsF3aSvb+M3b3nxxGO0t06BjfjiGD/zdOw98Vmo8+EJ/4LqTK1z4y9Kf8+06zC+48vN0sOQ3qHz/aYUfwqlR1aHM+ueRTAosdMkvVwVyauF6vFC75xd7wWbMmYNkipk++O7781rHneRAWPceZcw/pw0qVXHRINGd3mkWVqQPw/67wUndt0y2FjZT8Sh2R/Jc2T67FM6DG6+zJlXLYrkxWJlNfuezeIYSup5N4/f+iONThurbc2fL40x88uqPJorEUH5Um7LMZT44kQbaZw+QZH6QdcviVnZDp4yV0694btXZlnw3Atmpq+TvjHX9zyYsMXCGxlBBgPjkT3TNxrz9OwdlB7XCFBau2Vh9vaquGu0r9Jgv7BQndFoWKHpwFCSQGVyVUnEjAoegqlolQq9aAUafg3uiI5mTENVhEGHSB/reGxW5s/OyKQ5/rPzpupUuJDwOetu6vQfD3xNcp317P7uYE+JNuvYyvGRIRm4r1vad1nhzerQ1ersaYyhRn+Rq0zjrMiqtoLjl1UFExyzGz/utEO/Q44BWSFDiaKUODg7LD2bw6PxguVRp6tH+sW+QuqTYvRxfOao3OhoufA4v9qd8CpZ9wxmSmlyNpJNtMTMNOTm65J+z6zNpnTDsPamHunbW13SExznptNIvVvshJtC7xz6HU8/37tGJ750yo6RGZnT5eJk9T2XLF9rQ5P+CrstPF40es6OYGprq3TutTfw9HQQorjRR9ZZR86N7huQXhU//bW+SAQdQ1VerGMNxw8MSHdwRLiKs1qGEsXCsR3BMrFW+zhClT6D23qk83b/7LQqxs+UzVzHp2ared8Tn4U6Hyn5IJil5nRyw/Q3xwMfm5GZ4+MyvFulvYp/t6OUHob0Dp3vN2X5kz89sjqc7r1J6VflVR8/O6mPgtXlxbQLrbEZiBnlqkheLViP53/nGvXeBdWuBnVQR/WIZqVhvS+Dev/qdPQa/njv+/Ja0p3+ILBOvXv73YPB0f9zpybDo6nXd0qnastj6VWrjjH7BETHOgdHxQbp1qbiUdefefOg754ZEN99KOcMEpf0OAz3xTLHkZrjPsM46AjSOZ5ns/JxCgXyYrGymn3PJuxn+DdzHR+bsQbGRcqpoui7rbOOBw7i2n88cJF8GcaBTr9RmTkbHiOsjzZtU31LXa5LMZQkwh0dn9qWmMmdq36IPtKovyvLiixVljr4ylwp9Yb/XnllwXMv+JDaIQOJj1Bx5g70SHdwBHq45GpWt4fBcfnJD5fBEpV161ReSe5TpGeZtK5R8ZQ4zCJnGgUk32PyEdWH0seCB8u89FHUJi+outZeQtRYX6WxfmFWPvfdazSs0FxgKHEJlit4vuK4mOlVYaVeRwVqLMpx6alz/TJul6LTo9J369rA6q8r3LU39crQCVXx66mViYFQaOmdOzqgKnjzmzVrg82bYn5azJ8Ylr7N1oZdujO7WVUk9ukIWR26Wp09TeDG+J9QvIKZPzEkvVHYrffVX78Ww1CiaTgOFmbk0PZu6bhWNyKhH23ru6R376TMuZ1QvenpgT41mNWdIeVWpU+HSvPR007LU0eesglPZ/J81XXQX5Squ9bPyIAePG2In1/vsnDqUBBf9vu2Xtsh3XoTLl8C5X5n9WaJRiflXfXmlPd1Bg1fUG52x+8vSb6O0n1DlF+VgndTz0nMyknpBEVxY/mhO1E6LqdrpF3A2XHpVx3jMB6q5UVPQc5jKAlQfgzc0VXd4E+/w0bVwB+2DB1ejJ8m3AnZz/fEZ7HOR0r4zdcbfYKJffxumP5WvGzolv6R5PukhyG90+r7TVn+BORKj3R/k/fmZXJ3j3RZm4EH5XXXqMy6s5GyylWBvFq4Hs/1zrXrvWDDyti76rTvUgMg9a4Vj2r5kzev+d3NjvTJpqhuVO/ReZ+Kn/lwSUMsvfLUMbHyreNb5eMx5UcwSMqbB/33wlkyob9VmbRyTohLkhGHOp/s65XORByExpl4ns3KxxnkzIvFymr2PZuwn5Em+/dFyqmh4LuNz+my02naOp1+qtwcTT4vd75Uz5/cqwZ0UVlUbWf3rnHVlwlnHJRhKAmWuuQMd0Ct+sHMjg3j35VVxtLKXMP1RlqdUVZZ8Ny7bGYOBeG1VEmv0FnUX6v0hXS9vrFXBn0zh1X8BHnOc/JS5YAL76lMijrbrfljaryysVrHBb9L6R/me0Y69fYL66ozGgwrNA8YSpaB2YNb1SCzK/jCHloajQ6oCkNbtmOnZQAAAACUw8LxAem6Nv4FPdCI2UxxTY8cymOohWWjHiMFrBIuz8qhe9WA354dYRQdJuA99QcACoOhZKkJLN8ZM1YS68YBAAAASsDsN5C6LHPWOTEFmhIMJVcvQdo7+7vZBIc35JiBDQC1wVCy1Jh1hbF9HCzCJTnJNYAAAAAADWFO3NCnW/gIl+Sk91GgOcBQcvUSbM5rHdEbI1qSc98oSzwASgBDyVIT7FTdEm50d3y2stlUZXOtllbZtK/m9tsAAAAABdH7I+glvltlcExvoGg2vTw9LaN7t4bT9rfnOB0ClhUMJVcvC1M7pF2NFfQmscEBAkEZ1huhDkt/sHRuU45TfAAgDxhKloP5aRl2Nv/Um+t13bFDhk+kTIcFAAAAaJTE5pVKwcaGvTKoN4uFpgdDydVNYmPSaANabTxhGAFQGhhKAAAAAAAAAAAMGEoAAAAAAAAAAAwYSgAAAAAAAAAADBhKAAAAAAAAAAAMGEoAAAAAAAAAAAwYSgAAAAAAAAAADBhKAEplToZuaZGW7RzadzWz6Ec3nh6W3pvWSqs51rP3+avjSE9fvK60YzInt6s0u2VI1RRQP9SzqRzrU+VhkwydNX9DkzApfaq+3rSvjJJfpl8rCPI2ACwxGEoaZf6QbF3TIu27Z8wFWFEEDW+L9B0zfzcMHXhY5MH7guokr2uRdbcPyuTpOZk5NirTV0nHEUMJhDR/PTt/Ylj6NnfIWtU/0G2MNmh2bO6VwQMzMm/cLEr/oeBgcmZ3u7Ss2SqHKoGCxcFj3Kg7/cs2lMzL8NdVHr1xUGbNlaYEQ4nI2SHZpOsTW2vWSsfGHhkYuwpbFdOHj6tV1m7okp6dwzJNvQYNgqGkURbGpe+aVul6qqmbF0gDQwksAos5eF843Kv8vjo7ixhKIKS569kF1a60q3albaM2jIzL+Ni4jO4bkN7N7dJ236gsGHeL0n8oOJicfapLWq/pk/FKoK4+5p/fasXBjAxsaJOOJ8r++OUxbtSd/iUbSk4PSmcwwFwn/cfNtWYEQ0nFUNKxbTioVwIdGJTeW8MZpu2qTryqirLpw3c/YeIi0KgM7eyRDm2kXtMjh84btwB1gKFk1RJ+ISjPALBKwVCybMwf6F618bSYg/dUvy9PS/+65u1ElpHeGEogpJnr2RkZvCFM49nL5tJSUsZg8ni/rEvLo1n3VihxQ8msDH05xVDS0LuXadwo11Ay/cg6lV/7pf/2Fmlt5jYZQ0nFUJJM+wXVtrSr+OmUwdPm0tVAVh/+VGgA7NjDjH+oHwwlq5X5Q9KTVnlAFQwly8S8HFKdMgwlxUn1+4TqxDdtJ7Kc9MZQAiHNXM+Gg9hlC1sJg8lw4OzPo1n3VjuNvXuTGkoCA3vo1/zBHmlZ09u8s4swlGQYShSnBqVD39t/FZXOzD78MtfFsCrAUJLBwkm9xrhd2nRBa2mT9o29MnTCXfDmabB0wV2zQyYvz8n47h7pvLY1KMh6jXL3rnGZ83xlmhvrl+71baE7V07DPHd0QHqijRz12sTN/TJuNRyzB9Qzr3H8sBqXYGBx+yGZvzwvk7u7pT1wu076T4T35exkMG2tqxIe9e6b+2TUY6WePzFU3VQyofjgJX98tsqOKec9gzDE37OCE8+t13akxnOCIoaSCzMyvD2KrxZpW98lvfumVTya+wFRB14930mnzjsGZDyl/aqVpgFF85XrTsfhDd3St1+F2TgJ/FzXL9OXZ2U09m7K3YGZ5BROlWdmRgal11p733ptp/TsnfTGQ89B9aT5SRmI0l0/6/Sw9NyYzOuVMlRH+cmbB2rl/XBfgSiPhv506XQ768SEyQsdUdhMmk2aiI0G7+Pz0zJ0X2clrvx5RjE/I6N7e6V7Q5TfW2XtTT0yOGWVj7OjsuOOql+RNu17UyYf2ZS4nsd4kL9MmjiyN5HV8Rg6UPWXXVb1e6r4327WB9dKb02R9MtpKFm0+iYvc+PSX3m+Ts/w+eM+Q0me9A8oGN56ypJDEL+3Diu3yo9dUT7Tzxuo5vejVvuVWh/lrTtCgvfbWC2Luuz0HIiWKFTr2XgblJbOIYtSzyYwM0q+PlytZ1Px9B8MucLqQ4dft/cn3fbKX6fHyo+qq/vNFP7gnSPpgUbWPYv6wm3S0/U7ULVsh2H1D5S99YCqf+04CMJj9nKoxEOefFnj3cNnO/eMqn0LX1qnpL/Je7E+mAr3cKUPFv1uNt53LJJPDAtjveq9umVYL09YGJdeFQdBu+1SR7nI3a/N2+csmLcDCvTbtIEh3m5U6+1a5MoDWUYOc69mXzTLj9kh6dL3XENJgTjw9tkiF1ntvEUYh9XylNrvKaF9CvNESrydH5Zudc8bVwA5wVCSQrjGuFU67h2U0WPTMn1sVAbv7VAVRLsqkHZ17GnogoLbLh16nevtAzJs1s2N7t0arFtuvX88VqFrK772t1dV9HPn52X+rBpc3a2n0G2SwVPxqn9WVcatqhHp2jUs48dVuMaGpX+jalzWqMYj6kNeUH6M6H0MWqR3RP1b+6m0YCqdoEK/ZUCGtquKUHUqgzXUI6OVym5hTL37rX0yNDIpM2f1ZpFD0rdBVWDrVCfEDs6J/iCONj0yKbPBM2ZlfGenCt9a6TscrzmLxmf7hg5p26A6NGZ997jqyGxdrypQ92uHGuAP3arCdk2X9Cu30ypOxg/0S5dqEFpvzTH1OauStbmgwqWe37phqwyqeJk+Phmkp14DGV8Tajp869ulXTXeOvyTKkyTOvw6DlU6DTudmFxpqimUr/QXfPW89Tq8Jgxm3eam3VGzpwj87JTOm9qkc9uQjAZ+KnfbdDqqd3vEchswK4MbVSdytw7rrMyfnpbR3d1BgxpvjEzH4wmVd1Tnp+u+wSC8o4d1Y7mg8sqo9KrftNw/Wsmf81HgC5afInkgM++b/Ny5U6/9VelwXN0L1v5uja9xNXlBP69v32iYP5W7vvuG1BApJOw06Txg0vXYjMwo/4aD8tEinXudNemnB6XrxjC/T5+el9njozLwdd1pVHkgyi9BvM3L9J4udb1XRq14W5iPrnfJoOrUhXEai6UERctk31Oqg3ZNh/TsDPPJ8LHwHaL6a+teFReBP3o/hh3Sc+uATOu4r5XeRdMvh6Fk0eqbvJwdlk2qbrDri/CddJ5Q/rqGkjzpH1AwvEXLkocgfm/ol8Fdm8JyHz1P12c3Dqq47ZPOjbq9CP1OzeO5646oTlTpVwmzqpN290q/as9CrHrW5JvJUzNB3bnjJhUuz/Tzxaln/czt189S6XT3kExnro8P09P//jnC6iMI/7qg7gnrdPV7Xffs6griun1nfA+DWPkJyuq0DH5Zxe2XVdpGZfVCjXuGRsKt67BK3aA1Nyk7flfFt7WnSxhWt0yEJOoBPVNCt9k37QjSMKhXVHgG79skW2OGgBz5sta7L1jhDjQnkzv1Jrmqnq7Ejy+tPdei+nCNqmsr5W1IBu7rl9FKsMPfrVP5vy2oY9T7qfwf9DMK1VsLMn6/elbF6G3+9hn5CpaLIv3a3H3Ognm7aL+tVdWruj6ptOsZ9UmCPHlgkQ0lwfJW+6OnpmAcePts6m7Ndt4Q7c+kDel2HtHPS/TJS6hrQz+S8bYwF+a31g398TwEUBAMJT5MA7tum1tIfTuDexo6U3CTvxeZeaJD3VMVZ+VG+PUpUSEshAOLmGX4/CHpUZXNJnfjLzN1MuZHSuWhCTsUnkorC702V3Vc9ZfMkAUZvc+NC415H9VgVagjPnUDOW51wAJODgTTCnsPV30JK29PJ8yEt3cs/sQEGfFkM/2IavA8YQobJrsRNR346AuNzQWVpir91u2yjA91pGm+fOXJlz4iP+0wGYJ39r1HApOO+quzuVKNh1YVBjdxNCadna+RAYXes1geyMr7iY52CtO71tXs+EfPSaSrLjd3q/e+YbBiVEkl+hrifB1KC2d43T+ISFBPmVQdmriRISTfUpL09C6efvF3T1xbxPomH2awERskGcya6drxpfCmf8HwFixLPqK83H3AGToFz2uVVjVwnImVpQJ53Fd3mPfO3pQwql88+UbVs1vV72Pr0hetnk1n9kA4OAi+SutB4LHZyseKKmF6xurpImH1kVGnz+zpVPfidXqyTJm49ebRjHuNhjvGQjjIXK/CZeXzrDou8R55B55eMtq0HGV3YWqHGujl+KjmuRb2Kfx1bZWS6q2grDn9pKDe9RgGCpWLAv3aNBJ9TkXBvF2835azPsmBNw8slqHkwpxM7zPGCGump6Z4HPj7bLna+ais2xtWR5gPUbHZSmXUtcaPpNZKz57JfLNSADLAUOIjWOvvWGUNUUM9XKktPI1fUHCdCj4iuGc39L7GUxNetw0OekDR0tLjPcYvqMT0FDbzd1R5pBtKcljIbRKVuKlUEwMfc93uYNQRnzFDSwU3rsy+B07DEJLlj0VGPFUJK/91idkViqjRqjT85v29YRIZ36buWVMZi6dp3nxVnVEydNwXEkPwO3/aROtdvdNwHZKNqImHhCEtIkyfdENJkfdU/uTMA5l5vzKjZFxmUxtn0xHwhdsima+rhPfig30/bn4PSft99MxchpJ6ymTKQCc0dLTLVt/U2gpp6V1P+sXfPXFt0eqbvEzKDt1h9eYRvVGket8cgy3/8wuGt1BZ8pOMM8Pl8eB5vgHEzB7dyc2Tx1WonbojrBNrhcvTzlRItk2LV8/WYGFWJvVXV7P0TH/VPRSrEJNpViisPoIwptTpZmq+Xacny5SJP28eTb/XcLgtwq/SSWNBlBd98Z94D2Mw1TNKxtMr9FRS27RaZdd8wU8a+tLLc/WaqQ9rPcP8rtF6K4gzd/aJGewmynWhcpEWhqxwO/gMB4Xydh39tpz1SU3S8oDPyBHhe18fxl3VIGC0Zq1sSixXqSMOUvpsudr5oO1tTXkH47/d1hfKUykE7txTb8xslw2tqs7tk1FPdAPkBUOJh7DBtyqghGo0CFkFPHEvZeBlLO92hybYSCwWDldWJ8FUHr4KK9kxctDrenf3SvcN1TWGkar+pTXo4ZcEu2JuOD4ruPfCuPP7aVSrccuIpwpmY9yE35aqYcpuVN24L56mefOV4sKMDAXLDVT+unaT9O2bTBoAsvxMSYu5sUHpu6NLOtaHnf+KfJ3K1PgP/fbeL/SexfJArbyv91rQSz70Gmm9p8zoKafXb/KCP39WyXqO955eo7u3T3o26qm/8fAn4j/F7/B6WlrGKa9MahZkxnzNCjpr24dkMpHR0tK78fRzry1efZOTGnkkMJa69Wbu9C8Y3qJ1hoe0/JYVltQ8mqPuCOtE3/NssuqX5L1FrWdzMn98ULp12q7Xe0KZi544LBRWH5lhTD4vmVYm/ryD9fR7DYc74sK49Kk6IbnsMwqr/928eU7vE6SX/qjnt+mlbSMz3kFeoTbNGy8RC6p8q3iIpXGEr7y410x96M3XNullL/uezawM3mi9q6tg7zLjVFOoXOTv1wbk6nMqiuTt0vptWfd8ZOSBEg0l1eOB9XKl6tL6GCX2XfO082Hbm5Y+KoW08dH6UFgsT6UQuEuJN2MszbdfFIAfDCUewsJur/VPqlopeRqlgoU/XM/cLr0js+G6/QuzMnq/nna6I7a2LuyI9Fb3JkjIcpxReaR3fBV6ariqCNs29svwMbO2VOvkYKISD6cWtsqmPdMyp6f1LczJ9B71Lms2xfbhaDg+K7j3TKfC3vfAlTst1SWrko0wjU2Xek/vM7QqUZ/d2Mw+pfeRqMZ98TSto1E5PyPj+/pCA8CaDtl60PpekPU788W4Gt/zMnqfypfaj72jwV4KUThHE4O/Wo1umJbe+4Xes1geyMz7EZcXZPb4sAzcHhqZ2jYOyHTkx2IYSvT+HfrLZ7CGeNrs96M0P+otC2l+h9dT4s2hvDJpoTdFHBuSvmBgovcHOWQtb0pL78bTz722ePVNTmrkkcSX6kLpXzC89dYZFmn5LSssyd/krzvCOtH3PJtiA5slqWdzsHBY7x1mf0FNxmGhsPrICmOiTvellYk/r0Eg/V7D4Q4wMyGV/75lwWFY/e+Wnk9VvM/qgXhPOMi7pksGjkdhqaNN88ZLiK57vMsIA3zlxb1m6sPUdjMivexl37MIlrZ0SF+0z5GtA33BsrpYv6hgucjbry3S5yyUt0vrt2XdS5KZB0o0lNRMX02JfdcKGe182PampI9iyQ0liuCZul6y8xxAATCU+MicPubiaZQKF/4Fmd6tB9C6QCut0SekDFZOFIioVQnFyKg80jsUZt8R90uCxizDcP2be36rrI3C3ZKyU3mj8VnBvZd3mmoGNSrZkLDzUmu5RYhpbLxTONOW3hRJ0yL5ykE1cOPBOfvW9OjgdylTH92lN+bvxF4FUb7xdSpT4yxMS+/9Qu9ZLA9kdaa9nFadEtWJq86QylpWUSXrOe69cJmCZy+YaD23UxbS/A6v58xLpZVJP/NHww3dql8O09K78fRLXFu0+iYvJo94p5ebcmG9b7H0LxjeRusMRVp+ywpL4jcF6g49wKodrqz6JXlvSevZLBLtaDIOC4XVRxDGlDp90ZfeNBBuRbAZbMb+T2FY/c+Y3Kk33fTlU4too9SoDa6nTfPGi0LF7aY1aXtyaXzlxb02J8O3ZjyjQnrZy75XJdhrK3VpbDjbJLl3T0r6eu/l6dcW7HMWytt19Nty1iep1MoDWUaOqR3Bh5ma7VYRQ0lpceAn0c7XtfSmSJ7yELhLjzcMJdAoGEp8RGtbc2126mmUihb+4ISETbX3DDGbpWVvcmeIGpmj5m+L9I6vaaS/rN7bXIkIN/Z0KqMFNSBYv076xtxOhkOj8VkheU93zvRXi+yNzzKoUclGBO+fY+f+SmPgS/+MzVxzpWnRfOVDNWwxd+b91yWeb6aP2gO4qCF385R5B2+nMrXRNUdobhs3f1sUfM8ieSA976dh9pSovMeCanhVvKzpkdhJOA5Zz3HvRR38cadshO+VLAtpfodfq7ty5FFFaWUyhcSX6/T0bjT9EtcWsb7Jh9nM1bfRou5IKz/tslIs/QuGt4Q6Iz0vp4cl8ZsidYcZCPiWXlTJql8895a6nk0hueGkJw6LhNVHEEZfne57vi99zeDV0w/IvNdouKNBZtZGn0H7tU76j5u/I8xyHX8+jROb1VmoTct4d2OAaU35QBLiKy/Ja2F6tPv34aiQXvay7xnMMcBZbsJwWHmlaLnI1a8t2OcsmLcL99uUv0lq9WUMefKAaReTm9FG/a3afdFihpKy4iAFt52P2l7fnmMn9B5wjlGyaJ7yYfKEN96iesEyCM5NDcvwVL64A9BgKElh4diOcAdp+whGfbTcth7pvN2uCD2NUsHCH35B2+rdBM1ldn93cAxam3UcY3h0XLe077IqONMQ6o3MRk/NydypSZkxDUh6xze6pze0HA3WPepjKvWxmm03dQanNcQqo6CT0SEDmQ16SEPxWcFzTzVOw8Exmm3StT063lZv5DQgvZtVZ6NWo2MqWXcjqEhRnOnNuXYEx/taR/YpDet9BW7qsZYahY3NOhVf3uOBr+lNDJ5yp2mhfDUp/SpcO/aNyqRK//mz5uhAvbmV3ZAHv7OPB9bH7aUcD7yg4l83OvrI4WOzoZ/myNPOm1QjX8hQYgaTazplx8iMzGm/TpoCUOg9FQXyQGbeP9Aj3cGReOHyh9nKsYPtsmPK6paZjdqi42yr6bVDDpkIqF3Gqvf0xoXrdFzfPSiTp+eDsho8d71KFxXfbllI9ft0eKJK5M/scc+eNBbllEl195HO8MjgYNq0PtrRHMWrOmfVcpGR3g2mn+/aotU3ppNaczPCYNCnn189knH8wIB0B8eGq7xjlZVi6V8wvEXLkof0vJwelsRvCtUdKvrU74PjgfXxziY/BHXtnsjH4gObxalnPeg8cq0qE9vC4zWj5+wIlvKptnWvvUmmPw5zh9VHEEa3To/qslbpij3fn76ze/WgUx8Fqo/+n5XpqdnKwDTzXr3hvjwT7pehymZl6ZmlylI506+Jjr0PjvwN2rU26digB9bWe6iBes/m8Aj4YEnN6eqx45VjZIvmy5R3Dwfpqh8wmwx7dWmDL60918yAW/c1gqNYgzwU1l2DGUu2qmTdC9FGWNeokMCcPlUZ2BYsF3n7tWH+y9nnLJi3i/bbitQnLvnygGkHgzyk0jY4Qtu8rz6a2H1fHwUNJeXEgcpVudp53Z6FbW94PPC0zKj2bHRfX7C8KvHxomCe8hK4S/bh9TM3XRvGdaX/ZmZpan99G+0D+MBQksXZcRm4o6u6ud6atdKxUXW8D1c7Bt5GqWjhr3wNiatVdbZ6981YzwqZPzEsfZutTa9Uo96xWXVMnNNNFk4OSa/ZbV+7GTCNbHrHV3F5Xib3qsFE9M7qd93BTtrhF+FYJa4bdF2xmvBWVPmNcRdRb3xWSLmnwjx9oE+6N6wNBvfa77b1HdKtBl3TWR0Bjalk0xR/3zkZ390jXZUN31pl7YYu1fiMWgNS3diEUw/njg6ohsiEKZh2OiDjKZVzrjQtlK9UOsbCqvOTipNdKqy2oSb63ckZGd6uOrMmbdrWd0vfgWTek9Oj0ndrFM/q/W/qlaETqiOrZzMUMpQo9Gaz93UGHetg2dZu47bQexpy5oGsvL9w6lA8DXSYNqqOtu/rg958zoqvaFrxtImwrOd4ByYjUaNu/LpPhVv1rvQXTDe/Z/p9tL/iT+u1PRXDTSoNl0kVFcdUPt/YbtLR+LG5X0ZPO7knLb01DaRfanwsRn0T5L+cR2+q5/dvjuKlWla0ESAxAMud/vWEt2BZckjPb+lh8f4md90RMjdm1Z9KQZ10OHJV38Cm/HrWw8KMHFJ1Q4eVl8MyoZ6TqEvS4zBvO59Ah1HHpypveep0b1rptm7XJvNslVZ3HKqmT9Y9RV3hNoO/wH1CTnzHylX4Xv1jKgTBhxvrPaJ0iMpV4LZLevc6R4YWyZfedzf5zTzDVTVtfWmdkv6mr9FZCbtZ1lyJh/R8k31PY44+rrnBpVkWGX2NL1ou8vZri/Q5C+btgNz9NnWvYH1SJW8eUAR5yOo7VN43XLJZuqFE03AcqNyQt53XBG1vZ6UO8JY7TdE85SNwZ8JkS8Vrl+5zx34/IwP6Y+GGAc9mywB+MJQsNxemZWCjqnBu19ZX2yI6KkPbQyu5vZ64abg8K4fuVZ0h+8uRUbRpWvbUaWgK8jZGABBO23eP0wQAgCortV8LAOCAoWSZmdzemmHZd/dHaB6Cr1C+DbgM3iMwofnAUAKQk3CGR2yDQwAAiLFS+7UAAC4YSpYVs5HVfaP+jreZutixx1l32QQEGxDeMCjekEVLctLeC5oHDCUAOZmW/nWejSQBAMCwcvu1AAAuGEqWmeis+a17x4ONrMLNn2ZlOtr8c32fTLonJzQBC1M7pL1Fb8A1HG6UFoRbb/A0LP36fPVcu2zDsoOhBAAAAEpipfZrAQBcMJQ0AcGmdfYmSXrjrhu6pVc1MonNj5qIxKZt0QZR2njC8tOVAYYSAAAAKJGV2q8FALDBUAIAAAAAAAAAYMBQAgAAAAAAAABgwFACAAAAAAAAAGDAUAIAAAAAAAAAYMBQAgAAAAAAAABgwFACAAAAAAAAAGDAUAIAAAAAAAAAYMBQAgAAAAAAAABgwFACAAAAAAAAAGDAUAIAAAAAAAAAYMBQAgAAAAAAAABgwFACAAAAAAAAAGDAUAIAAAAAAAAAYMBQAgAAAAAAAABgwFACAAAAAAAAAGDAUAIAAAAAAAAAYMBQAgAAAAAAAABgwFACAAAAAAAAAGDAUAIAAAAAAAAAYMBQAgAAAAAAAABgwFACAAAAAAAAAGDAUAIAAAAAAAAAYMBQAgAAAAAAAABgwFACAAAAAAAAAGDAUAIAAAAAAAAAYMBQAgAAAAAAAABgwFACAAAAAAAAAGDAUAIAAAAAAAAAYMBQAgAAAAAAAABgwFACAAAAAAAAAGDAUAIAAAAAAAAAYMBQAgAAAAAAAABgwFACAAAAAAAAAGDAUAIAAAAAAAAAYMBQAgAAAAAAAABgwFACAAAAAAAAAGDAUAIAAAAAAAAAYMBQAgAAAAAAAABgwFACAAAAAAAAAGDAUOKg3xMhhBBCCCGEEEIrR2WCocTBjWyEEEIIIYQQQgg1t8oEQ4mDG9kIIYQQQgghhBBqbpUJhhIHN7IRQgghhBBCCCHU3CoTDCUObmQjhBBCCCGEEEKouVUmGEoc3MhGCCGEEEIIIYRQc6tMMJQ4uJGNEEIIIYQQQgih5laZYChxcCMbIYQQQgghhBBCza0ywVDi4EY2QgghhBBCCCGEmltlgqHEwY1shBBCCCGEEEIINbfKBEOJgxvZCCGEEEIIIYQQam6VCYYSBzeyEUIIIYQQQggh1NwqEwwlDm5kI4QQQgghhBBCqLlVJhhKHNzIRgghhBBCCCGEUHOrTDCUOLiRjRBCCCGE0IrX/rukpaUl0F37PfeXQof+TDa0qTC0dct3fmxdf31Khvs2ynX6ng7jb10jG/qG5chjG+XT6u9P/9vdMmHcDt9t3Ny8q3Jt8TQl39lyjXyy5ZPS3vec5z5CqJlUJhhKHNzIXg2aePhm0zB+Rb4zlbw//fTtqgHQ99vlwReS9xFCaEVpfJfcHNRpWp+U25+cTripdLTvHk7cQwihlaJqH+9m2TXud1NRExhKph7/ignDtfLAofj1sC9a1cbHpmT4jz8Z/v1b35Bh43ZpDSXPyQO/bZ636Tsy5XWDEGoWlQmGEgc3sleFfrxbNppGxz9gMI3Q9Q/KEeceQgitOMUMJUrXqQ72dNwNhhKE0GpQsxpKwr6lJ0yvT8hzT++TffuPyLR1fd8fmTr5t1V9/bp2Ny3T+v9TL8iwcj98uNp/XRRDSdRueNqE6cPDsk+F4bmJ+HWEUPOpTDCUOLiRvTo0Jbv/rWlUbnsy1jC98fqw3PVb4b0NO49Yv0EIoRUq11Ci67dvvxBzg6EEIbQa1JSGkul9cnvQt8wRpkATsutmUyfnMH4shqHkyM4NoZ+0CQitaJUJhhIHN7JXi6Ye2xg2AC23y5P2l1XVaIZTHTfIg4er1yee+TP5Sud1wbpQPXX9mvUb5YG/jlv/o4bqrmfU34d3y+2/r9dwmsY3Gqj87oPywvEXZNdtG+SaoNFUfv3+7bLrb+MzWyYO7JJv3Pql2NrU9n/zgOyLNbBRQ6qXCE3Lczu/Eq5zVe4/fd1G+bMDU/KG+6w/uEueHLP9eEOm/3a33PVvnHd7eiLmBiG0glUxlNwlD37bdH5/62bZbdUnXkPJxLDs+uOvyJeu+3R4z1s/lFMPaTe7766ux//k2nbZeP8+mdBfUG13CCGUoVRDyesTsu/+m0099Gm5Tvep9j8oXwrcOoaSHPVRVGfqmckTzzwgG6N6su26uNvxffJAZ1SHWorq2oqxxoR3+gX5zt1fMn0yW3cFS20qdbX52w5LzFByfFjuui68/sk/2CVHgvBMy5G/flBu/zftJh6UVHi/dNsueS5aiv76lDz3cLe0R/criuLTMuI4RpQifeWa8aY1sU/+7Nao7QjdfOnWb8iuZ1W7ou9Hcac/eiq3D1T6siZ97RkvbjxnXbf9HXtS7vqDsD8f7BNz2+4gLuNh3yBf2fmc9Z5L1z+P4tM79rDcoatXZYKhxMGN7FWjyvKbT8rtT9vTF82yG6uxOaIaXXedaKTrVCMRVYxRZdX+R3fJVyoNzCflGwfU/cpA5TppX2+eYeu3bpd9lsHmuT+5ztxTlf3vRpWkdvcVa7OvamN13fp2Txg3yIbf9zzrugfkOdMQTavG4DpzXXcE2tebxkCF++aHmVGD0KpQpf65WXYfVp1ns778k9aMukpH2+74HnqgUj98+rr2quFW1Q9fedx0VEuoh+wOfWAU/t1qJ77awUcIodryG0qmZfiPo36Vpd/6ZKXOqgwsc9ZHUZ35SVXvRfWkrWhWcqVudZVmKPHMAAxVwFCi3uEbpq/5yT/QH+hCd8FGrJtMfazfrdLnU4rq5NTnR/HpN5QU7SvXirc3pqttVdAXtvqnlX57FHe/pfqvUZrZspfQ+wwiaddr+Hvt72/whL3cdjFv/zyKT+/Yw7hBV7fKBEOJgxvZq0e6sTAV0B/uCytwa9nNzQ8bi21luqRubHbJC9qYoa3t34oa4uvkz/429DPWGGqL8WP7ZN/Tw3JE/8ZueK67XZ4cU5X869Pyws7IH8f6++MXZPiFiXA9qv77+JPSbdz5KmIdjrueDq9P/VW0Ga3Sb98u3wmeNSX77o46CVFjcEQevN64U41r1PhXGjvHeIMQWqGyDCW67Fc3CbxW1Tthh7NSf9mGElVPvrD/BZmo1APT8uRm466yiV+j9ZA1xVtfi76ojakwB3Vv3JiNEEJZ8hpKpr4jXzH1UaUvd/yIPPmHVeNJ1AfLWx9V+3xq4Prt52RK96F+/GR1cG/P7kgbpKfes+pV2x+l6nNTDCXHX5AH/8AMwq9TbipGEqOx4dj+Jm/87Z9Je+CfvZms3xiSeq+uvnKNeLP6zbc/Hf5W95uP7Ff96qhvXIk7/dwH5Tn9IVE998k/utZct+I0LQ1812P+mveZfk7+LOozK938LRP2w1HeUKrE1dL1z6vxqeSOPYKwoKtdZYKhxMGN7NWkyk7jv6UaEl0JPfuAXBtUNr7KMr4b+RvTT8rtpmL60kPuV4ONsts+4k3LqvAj9+5121AydWh3sPSmvTLlvaqKEceuiL+oKtLITyts7fY+BFbFHzxrYnfl2Tc/ak3lq3QonHdGCK1MOYaSWN1x/YPygqr/KvWX3Smeek5266U39qy2SJXOe4P1kPr97j8wv/+D6nGXtjH72j/hCEqEUD55DSVpfbkXHjRGguL1UbXPd5fsiwbu9nXbwFF5vhWmzHtWvWr7o2Q/N2Eo+YMHZVdkJPAZSZQmng6X3rSvTc5oqPZDrefnMZSkxW9mX7lGvFnGFz2j5Eu3PShPvhB9KDSy2xO99CRx3YrTtDTIdBv394Vvt5vr9rJ9X1o12C4W6J9X49Mz9kBIqUwwlDi4kb2qVKlwPhlUTM/9iWlc/u3u6nFnaRXrG8NyV3BdyTQUiUreVopBxHddH08cDUo+ff1X5K4//ob82cMPVE7q8RpKYg1ZNWxVt0puRWw9O02xsCKEVqYShhIla1mNricq9VdUlxxXndRoqY1ef/1H35Bv9O2SB6KNsH0dwnrqIfv3aYr5ixBC6co2lFjXtBJ9sPz1UVqfz3s9tS+Zds8KR5r/PkOJtZRIzzp40jGUvLDzS+a+3hPjdvmG6l8++O27HGORVlq9nnIv9f3y95V914M9Opz9XT7d+WfyXPReac/1XS/BbTVvVePen1Zp8Vd+/zwtPhGKVCYYShzcyF5dmpYnbwsrmGv/ZJc8+Lvhv/U59RU3B75hGpUCVnJfZeUxiPivV8PU8rt/FnzpDdxZz1sMQ8mGW9UgSDWYrr5jbWiLEFqhqpR1u9M3reosYxxWHerbbzNfF01dMv3k7eHfLe2VKdOx+qmsDqH9++u/4q2HvvFX1iw8hBDKUKEZJWO7nM1c89dHRQb8aQPv9HtWONL89xlKlK7bfJd0JzZx1Xqh0s9t2Wyd+JiYVaOVVq+n3Cuhr5x2XWt6bFh2WRvcfjJ6blq8+q6nuC1iWFsOQ0mt/nlWvCGkVSYYShzcyF5tqgwGrrvOfF11pq7VXHepGoVnQ7eZlVVuQ0l1eqdtKLE3ySrNUGKtgbz2j54M11pGbl+flqmJqWpDihBaufIaSpR+/B1r8zcjU5dUlibahpLKOn2lsjqE6lplT4DfvkuedKYOT09NyBRrrRFCOeUd+FZmEKv+zm3fCU9Wie0NUbw+KjTgr9R7qj41hoTpKbNPiHdQ7ht8h6r47zOURMs8dF0duLE3Un1OHoj2AakYSrTBPBkHsedv/k7YP5xWfcKgn+ip80voKyeuT70g+549Ut2rT/ePbzVuoj2yvHGXct1qe26ONoz98b7qxr1et9Y1pSUzlBTon6fFJ0KRygRDiYMb2atOlrU7UGWDwqomHtuYXJ9v5NvJ21tZ5TaU2BWxanD0Ttd6Ham183Z5hhLVUO//RuwIOH2yReUYNipdhFaH0gwlSkceqtY3gaK6xKqbqqcjfFL933SqS+sQKlknNARqu85aP58MM0IIpclrKNEGAc+pN59s+3TlI1TR+ij3gF/r8IOyIfIvUnTfOyj3Db5DVfz3GUost9UPbNfKXc9oo4w1i1CpcpKZ+n/UD6z2T6dl3x9acWAU3vfX+Y32lRPXK22QPhbX3lPFOl0mxaDhvR7b88TS9RtM2lhuU/xdOkNJ/v55WnwiFKlMMJQ4uJG9+hRvDKonysSlN1d1zzK/6zGz47Vxk1lZFTCUxM/6V8/6/dtl199Oy5RqhLS7Mg0lgcb1OfVfih39qd/v9kftM+ERQitWGYaSN15/Th6wjz+0O77PPCA3m87pJ9dukNsffkGmo6PVS+wQBtL1Xt9X5EvWBtbaULzxtt3yHDNKEEI55TeUKMX6Vp+WDbc+KM8dr365L1of5R7wGx15/HbZEA32266TL927L2NWhG/wHarifw1Die7fPhktqfwt5bc+wef4C7Lrtg2mL/tpue7fPCD7Jt6Q5+4PDSixODj+nPyZ0+/dFSz3SKvzG+srJ65PDXv7pnf9tbUUM8WgkXr98G65/ffNMbu/dY1suG2XvKBPCQqWJFluU36/lIaSQDn652nxiVCkMsFQ4uBGNkIIIYQQQgghhJpbZYKhxMGNbIQQQgghhBBCCDW3ygRDiYMb2QghhBBCCCGEEGpulQmGEgc3shFCCCGEEEIIIdTcKhMMJQ5uZCOEEEIIIYQQQqi5VSYYShzcyEYIIYQQQgghhFBzq0wwlDi4kY0QQgghhBBCCKHmVplgKHFwIxshhBBCCCGEEELNrTLBUOLgRjZCCCGEEEIIIYSaW2WCocTBjWyEEEIIIYQQQgg1t8oEQ4mDG9kIIYQQQgghhBBqbpUJhhIHN7IRQgghhBBCCCHU3CoTDCUObmQjhBBCCCGEEEKouVUmGEoc3MhGCCGEEEIIIYRQc6tMMJQ4uJGNEEIIIYQQQgih5laZYCgBAAAAAAAAADBgKAEAAAAAAAAAMGAocZifn0cIIYQQQgghhNAKUplgKHHwRThCCCGEEEIIIYSaV2WCocTBF+EIIYQQQgghhBBqXpUJhhIHX4QjhBBCCCGEEEKoeVUmGEocfBGOEEIIIYQQQgih5lWZYChx8EU4QgghhBBCCCGEmldlgqHEwRfhCCGEEEIIIYQQal6VCYYSB1+EI4QQQgghhBBCqHlVJhhKHHwRjhBCCCGEEEIIoeZVmWAocfBFOEIIIYQQQgghhJpXZYKhxMEX4QghhBBCCCGEEGpelQmGEgdfhCOEEEIIIYQQQqh5VSYYShx8EY4QQgghhBBCCKHmVZlgKHHwRThCCCGEEEIIIYSaV2WCocTBF+EIIYQQQgghhBBqXpUJhhIHX4QjhBBCCCGEEEKoeVUmGEocfBGOEEIIIYQQQgih5lWZYChx8EU4QgghhBBCCCGEmldlgqHEwRfhCCGEEEIIIYQQal6VCYYSB1+EI4QQQgghhBBCqHlVJhhKHHwRjhBCCCGEEEIIoeZVmWAocfBFOEIIIYQQQgghhJpXZYKhxMEX4QghhBBCCCGEEGpelQmGEgdfhKMUnX9TRr69UT73qRZpaWmRz3z+Htk/tkc2qn+3bNwjbxp3r/RfL60tX5C+sbmkH169KXs2aj83yp43fPfzqfhz0bLqjWTeQQghhBBCCKE8KhMMJQ6+CE/XnJw48KB89fc+pwbkemDfKp/7vZtly/Y9MvG2z/3q0omBLwYGktbf2yK92/vknq175IRnsHvVGEoO9wbxYav1t6+Xrz7wtEyc8bhfTXrtMfmiet/f+faE/74nbiJtHHwzdIOhJKfmZOQbrSruvipPp9Qzbw5uTMTzZz6v6qaHRuTN8/7frBZNfPt3wne+4TE54bmPEEIIIYRWp8oEQ4mDL8LT9MrAzaGB5FOfk+s7rg/0hc/qQUl8ABMMWlbd4O9NefoW/a7Xy2OvWtdLGewWNJSoQXhrS68c8d1bShljwO/cco/0be+Tvq1flet/Ww9o1bt8XoXvrOc3q0Sv/OX16j1/Rx582X+/Yii5YUsYN5YeO3wmdIOhJJ/mDso9Op627JczvvtKkaHki7eFcdx7282mbmqR1lv2yInVaiyZG5F7PqXe8VO63Kn8eNTjBiGEEEIIrUqVCYYSB1+E+3VE+oIlJ3fIfme2wJnX35S5yt8n5LEbVuPgL8WYseSGkujrevMYSiozJLTOn5A9t4TGko1PWtdXk85PyIP/SqVX1hf8yFDywBH/fS0MJbl05umvqrhslXueT58pFRlKeg9b188ekd7P63LVKn1j1vVVpLnn7wmM1/f85WNBXkqd4YQQQgghhFadygRDiYMvwv1Sgw49qFMD9JG0r7NvHJTeL38mHCBasgfSb448LFtujJbufEa+8NUHZcQ2DqQNMFMGlXOTT0vvV78gnwn8a5XP3XiP7HnZfLG3fheE4bWn5R7z7HAQbwwU/+pBmThzRB6O/PnU5+SLW/fIK9GMCP1et0RhrioYlHnCdeQB634UDr2/yUNb5ObPR/Gj3v3LW+Tp1/R9y1Dy8hF57LYvmvcx8fOm8WNuQh7bopfXhP5XZOLK+1z1Xtq/aF+VuKrGlprx6JPPUKJUWQZhp+HZV+TpB75a/cr/21+UewYn5EwlL5k40PF4/oQ8vdWE+Zanw3h9Y0Qe/Or11ff47Bfk5tseVnmnOngO36Hq5jOf/6r0Pv2KZcRTMmHuHTkjrzzdKxvNDBgdni0DE3G3aVJ+BHnIee+YChpKJsYeky03mLyh3u2r304uGamdRiYOb94jJ97U8ZXMz2+OPChfjfKgfs5DR6w0UHrziOzZ7uTTr/bK05OWkaJAHIZ5UtUZZ3T6R/v76LBvkceO5lkiZt7pUyqvZswK8RpKlKIyYadVY3XGvJx5eY/c8+Xo9/q9k8vNliYvnpGn/532f4vsPxPF0z0yMudzixBCCCGEVpvKBEOJgy/C/YpmMrTIF/4wZU+St1+REdXhv165aelQg6vnR2RE6cjr4YDozDNbggGH3uOjb/Bp2fPQPXKzHjh/aqM8HRlL0gaYPkPJyw/KF/S1z94s9ww8LU8P9MqW39NhtPbpML9r3XKHbNGDFjU41EuGHg6+MEcGis/IZz7bKtdv6ZW+7coPM2BtjQbp+r2eVwOfDu32ejXgCd/rFR0HuQwletlONAjaKPcESwO+KJ/7bDSoicLRGkyh/5xZynJPZHT6/IMyoQeJcyfkyPMPy1f1tZavysMmfkcmw0Fe4rl65oP+ov6pL0rfgVfkzTfUYPUbXwjcfO5PR+TMGRNHeeLRJ5NWrsHgxHduDq5f/5evhNeicKh4vnnrY/L0049JrzH4fGH7ETMgjAZ6W+SOLfrZaoCul3epgfz83BHp1TM4PnW9bPlmtLRCx58aIJp8ODfWF77Dpz4nG7dqN/dUBp7VZyiZMP/O578grZ9VA1Lt3ze3yPVmAL/lGdvw4FPt/TICpeVjW1HeUWneaoU7KBM63Dut2QG50ijKR1+QL3w+ys/VePidG78oX4iek/bOOkzasHKb/q1yt/VmY2yxBuAF4jDMk78ThOczN4R7+0Rpr9M6Sr9U1doLxijNUDLyTf38FrnnYIG8nlVnRGmmf6/jR5dTbXSJyqj6/ZLlxbefDuuCrQcDP8OZN9a7IoQQQgihVa0ywVDi4IvwVJ1VA94bww6/Hsh+8baH5eCrTmfeYzgIFC1X+Fe9MmLvXXH0QfkdPViIBoVpA8yEv9HX1I2y53XLXTR4iPYziH6n9MVvO1/PKwNLdS8a1Gvp5SPBdXvNf+S29tKbhMFCvVMwMFRu/HslVMPxO98csb4kR9ftvTCqM3vcpTeJ56pBoY7bFuVnxV2030PRePTJpFXFUHJ+Tt48+pgaaGv/vlAJczSA2/idE9bv7a/h+u9qHLTc8KAcsZd3RXH8VWO4ilSJy8iv35HeEWuQWDHQfFEeC2buKEX5Sxs6opk6SnPqehBXWe+rdWa/bNHuzODU60ar8hxXVv6p5E0n3NF1PdMpuJY3jVLyszE2uM+ZO3BH4DZR1mJ5dE4Obg39tPNz+C614zDKky3/TqVdxd85dT3cgLSWMWBip3bn7AvkUcJQovLiiQP3GINFZJApoc4w7/657WlxtnR5Mdxc2lqSFL2HiuvMPIwQQgghhFaFygRDiYMvwjOlByDPP1xdJqA66td/82B1EOQxHAR69bFwpomeTWK+xAb6xsZwUBC5jwYPtQwl0YD/c9Uvu6G2mEGhMSREv/NO3Y8GlsmBWDQrojpbInJb3FASbvxZnbqflM8gEiph/GjUUHJ+JPx90Xj0qTLQc/UZ+eqTkVEkGmh/Tm4Ovq5XtUXvZaPch+GN4qDVetdIZt8b5VbPSnj4wCvxwWtkvKgYFqpKxH0UZncQmpZvHeXZLyNQ9JzEZq6PVY1A0TMT4XbSOHcapeWjlGVzOd85YYQoEIdRnnQNIpGf7mykmCLjao7TXCL/EvrU9dJ32KRVGXWG2TxV54HP3dIrew6fkLllyYuvyGN6hltsqc0Z2b9Fh82poxBCCCGE0KpUmWAocfBFeF7ptfp3mM0S79hvBkJpnfxoUGCmsSd05/7QfeSulqGkMpipnsAT18PxQY930JFi/FBKDuTqN5QkjR2u0sPRkKHkvBpMaQODtfTm4PYvSqtKr8pgLW88+mTSqnLqjdLDg2ZJUsVd1QDyud/z+e8ug0oZ5Ok9Xr4d7XGhw3u93DFo9nzISONEOubNX14Zg40eBCeMbo7SnmMr9ZlOGudOo7Q4TMkzvue/MSKP6dOLKkeAV5UwlOSIw7S8n8dQEm1U+tWns2edaEX+RafeaD329IScsPfryBuPqelidGZC9myN9hFS+uzN8uCIU548vy01L5qZeMHvPfrigD17CyGEEEIIrUaVCYYSB1+EF9HcwXvCznnU2U/r5EezG2pMJ08dPIz1VZavBP5mfLmNKXPQEQ0skzM5ypxREi4fyFpmkG4kaMhQonXmoNzzufC6VmJTybzx6JNJq6zBbvUrdzKO46phKIl0/oy8cuBBs4+HMdBFMwWKfMWvZ3Cac7+MQGnPsZX6TCeNc6dRg4aSN54Ol0196ovSO3hQRo6ekDNvn5GJvwzLwtIaSnLuBWMU+ec+J6ZS6gxL59+UIwN3mD1FviAPT6prS5QXjzyg48ZnfDSbzNZTnhFCCCGE0IpSmWAocfBFuFdzJ+QVsymrrVf+Uq+TtwY80UCh4zF5xXYbTaPXgzh7f4DKffP/yCASW2evBk3fDI0N1cFDyl4AkSL/Mgcd0cDS3aPEzMSIDe7rN5REX8a1m9geJfrfwd9FDCVmyn3LPXLQOd0i6faM7P9DNaC68WF5xX5uTDnj0adchpLqHiXx/VeMKv5nGEoq8WRpJHz2Fx7S6VbHvhB1DE5Dg5flV5bKNJTkTqMGDSXeMM/JwT/Uv7XyVYE4rNtQYoward/w5BmPchlKyqgz3HyoFBlVw1l1S5AXo+U/3uWE1edX91dCCCGEEEKrUWWCocTBF+Femc67Pgrz+q/qpRb3yFej6fmfVx32ygat0X4S1ikyfxkOBPQmhfHTIJS+uUW++NvWvhSxPQDM6S/6aN7PfyH8rT14eF2FKXCrN5Y1p3TocH3+M9UBWOagIxpY2qfNRKdgWKfexNwWN5QEm8MmTr25Wb7w2civIoaS6ulDn/myiZ8/DZct+QalEw95jhNW8R87/jhPPPpkBnq1DCX2+0cnnwTh1qeFVOItw1Ci41gfZVvZ48RzUon1DuFeKNknjRQenBbYLyNQ9JzEHiV98thhM7Mo9Zkew0auNGrQUDL5sCmfX5Q7TFj1yUtfUGVPv0slXxWIw3oNJbn3gjHKZyhRarTOUO8eHN9rTl/Sv02c3PX/b+/uf+S47nvP+z+42MX9QfdHARc368Xu4hqKNyDgwFgGAgJd/xATWEQhEsGItAlgwZBgGYQdRnAgMjcmRINQLiPFDENEtGhTkSkqzI6tWKYcShYp0SItmzIZEeFIskRRD5Rn9Th6os/Wqa6e6T5zelg1U5S7VK838EaT3dXV1aeqT9X3M1WnLvG2GO8eFt836cym4Vl+dUMmkiRJdtM2EZQk5Bo86/kTYebWG8PVRUFRHtzHA/HfvTrceOv+cGz0DiXR0zNh03Cw11iUj5yt8cLx/WFLLJCreVxRFMDXfWVbeGCksDv/071h0+eGYyQM7q5z6JnqTIq0eDhzKOyMt4otC5PCOP7AjZvC/uNVgbVs0TFSWD56KNw+XK40SEinHS1C6xaH5RgbRftVBdNgOXeGY2O3B64TlBS+dCzsjOFRnE/RPuv+8oHy7Jsl01brYayw+9qGcF21DscKrYu1Y86q0LtoUBKN33/HhjIUK+dfXjZwY9j0nWNVMbdMUHL+WNhdBkvVssXv/Kcbws7huBBDk++w5DKj6AqL0ybjZZQOPyfjxQvyScHGxdbRKoOSwqf2b1pYR+V2880j4YVY+Bf/X9iuGrThyoKSBmPBVNYOSqKr6TPOPFD0X1cn790S9v80+Z1csm2xxhkjC2ecjA70SpIkyY+abSIoScg1eH9cpjjvvNV3yxWb6Z1vSJIkSZKdsk0EJQm5Bu+PH+WgpDqL4Lq9Sy8VeemBcHN87WID65IkSZIkp9I2EZQk5Bq8P36Ug5LhWCZrwjVf2xseePBQOFT4wN1bqjEVrgm7n8y9jyRJkiQ57baJoCQh1+D98aMclBQuGRckjpUQx5XZG458FL8vSZIkSfbENhGUJOQanCRJkiRJTq9tIihJyDU4SZIkSZKcXttEUJKQa3CSJEmSJDm9tomgJCHX4CRJkiRJcnptE0FJQq7Bcx44cKB0+G+PHj169OjRo0ePHj169OjR4+Dxw7ZNBCUJuQYnSZIkSZLTa5sIShJyDU6SJEmSJKfXNhGUJOQanCRJkiRJTq9tIihJyDU4SZIkSZKcXttEUJKQa3CSJEmSJDm9tomgJCHX4CRJkiRJcnptE0FJQq7BSZIkSZLk9NomgpKEXIOTJEmSJMnptU0EJQm5BidJkiRJktNrmwhKEnIN3nW3b99Okp0317+l5t5Hkl0z17+l5t5Hkl0y17etxjYRlCTkGrzrxo0QALpM3Z2p/g5A19HfAegDdfu6JraJoCQh1+Bd144UQNdROADoC/o7AH2gbl/XxDYRlCTkGrzr2pEC6DoKBwB9QX8HoA/U7eua2CaCkoRcg3ddO1IAXUfhAKAv6O8A9IG6fV0T20RQkpBr8K5rRwqg6ygcAPQF/R2APlC3r2timwhKEnIN3nXtSAF0HYUDgL6gvwPQB+r2dU1sE0FJQq7Bu64dKYCuo3AA0Bf0dwD6QN2+roltIihJyDV417UjBdB1FA4A+oL+DkAfqNvXNbFNBCUJuQbvunakALqOwgFAX9DfAegDdfu6JraJoCQh1+Bd144UQNdROADoC/o7AH2gbl/XxDYRlCTkGrzr2pEC6DoKBwB9QX8HoA/U7eua2CaCkoRcg3ddO1IAXUfhAKAv6O8A9IG6fV0T20RQkpBr8K5rRwqg6ygcAPQF/R2APlC3r2timwhKEnIN3nXtSAF0HYUDgL6gvwPQB+r2dU1sE0FJQq7Bu64dKYCuo3AA0Bf0dwD6QN2+roltIihJyDV417UjBdB1FA4A+oL+DkAfqNvXNbFNBCUJuQbvunakALqOwgFAX9DfAegDdfu6JraJoCQh1+Bd144UQNdROADoC/o7AH2gbl/XxDYRlCTkGrzr2pEC6DoKBwB9QX8HoA/U7eua2CaCkoRcg3ddO1IAXUfhAKAv6O8A9IG6fV0T20RQkpBr8K5rRwqg6ygcAPQF/R2APlC3r2timwhKEnIN3nXtSAF0HYUDgL6gvwPQB+r2dU1sE0FJQq7Bu64dKYCuo3AA0Bf0dwD6QN2+roltIihJyDV417UjBdB1FA4A+oL+DkAfqNvXNbFNBCUJuQbvunakALqOwgFAX9DfAegDdfu6JraJoCQh1+Bd144UQNdROADoC/o7AH2gbl/XxDYRlCTkGrzr2pEC6DoKBwB9QX8HoA/U7eua2CaCkoRcg3ddO1IAXUfhAKAv6O8A9IG6fV0T20RQkpBr8K5rRwqg6ygcAPQF/R2APlC3r2timwhKEnIN3nXtSAF0HYUDgL6gvwPQB+r2dU1sE0FJQq7Bu64dKYCuo3AA0Bf0dwD6QN2+roltIihJyDV417UjBdB1FA4A+oL+DkAfqNvXNbFNBCUJuQbvunakALqOwgFAX9DfAegDdfu6JraJoCQh1+Bd144UQNdROADoC/o7AH2gbl/XxDYRlCTkGrzr2pEC6DoKBwB9QX8HoA/U7eua2CaCkoRcg3ddO1IAXUfhAKAv6O8A9IG6fV0T20RQkpBr8K5rRwqg6ygcAPQF/R2APlC3r2timwhKEnIN3nXtSAF0HYUDgL6gvwPQB+r2dU1sE0FJQq7Bu64dKYCuo3AA0Bf0dwD6QN2+roltIihJyDV417UjBdB1FA4A+oL+DkAfqNvXNbFNBCUJuQbvunakALqOwgFAX9DfAegDdfu6JraJoCQh1+Bd144UQNdROADoC/o7AH2gbl/XxDYRlCTkGrzrxo2QJLturn9Lzb2PJLtmrn9Lzb2PJLtkrm9bjW0iKEnINXjXPXDgQLn+SLKrxn4s17+l6u9Idt26/R1Jctw2EZQk5Bq86yocSHZdQQnJvigoIcmV2SaCkoRcg3ddhQPJrisoIdkXBSUkuTLbRFCSkGvwrqtwINl1BSUk+6KghCRXZpsIShJyDd51FQ4ku66ghGRfFJSQ5MpsE0FJQq7Bu+5qC4fnnnsunDx5Mhw9erT0ySefLJ/LTUuSl8IPKyjR35H8dSsoIcmV2SaCkoRcg3fd1RYO7733Xti4cWO44oorSv/8z/+8fC43LUleCj+soER/R/LXraCEJFdmmwhKEnIN3nXbKBz+7M/+TOFA8tfmhxmU6O9I/joVlJDkymwTQUlCrsG7rsKBZNcVlJDsi4ISklyZbSIoScg1eNdtUji8/PLL4Zlnnhl7LhYJX/nKV5YtHOJ74ntnZ2fHnifJNrwUQYn+juQ0KighyZXZJoKShFyDd926hcPzzz8f5ufny3Z46623wosvvlgWArFIyF2zH1+L08RpI/G9586dy86bJFdj20GJ/o7ktCooIcmV2SaCkoRcg3fduoXD1q1bw5o1a8IXvvCFcM8994RXXnkl/OpXvypN/8I6fD5O853vfKd8T3zv17/+9bKYyM2fJFdq20GJ/o7ktCooIcmV2SaCkoRcg3fduoXD7/zO7ywUB0PXr18f7rjjjnDdddctPPcnf/In5XN/8Ad/MDZt9Morrwznz5/Pzp8kV2rbQYn+juS0KighyZXZJoKShFyDd926hcMnP/nJJYVAU+M8Hnvssez8SXKlth2U6O9ITquCEpJcmW0iKEnINXjXrVs4vPHGG+Gf/umfytPKf+u3fitbGOSM08b3xPfGefgLK8m2bTso0d+RnFYFJSS5MttEUJKQa/CuW7dwiAMTvvbaa+GDDz64aBGRFgvxPfG9cR7uBEGybdsOSvR3JKdVQQlJrsw2EZQk5Bq869YtHEaNd4SId3p49dVXw9q1a5cUDvG5l156Kbz//vvltLl5kGRbth2UjKq/IzlNCkpIcmW2iaAkIdfgXXclhUP8S+mFCxfCH//xHy8pGob+4R/+YfmXVXd9IHmpvZRBif6O5DQpKCHJldkmgpKEXIN33aaFwzPPPFMWDX/7t387Vij8xV/8RfjqV7869ly8PWac9tlnn83OiyTb8FIFJfo7ktOmoIQkV2abCEoScg3edZsWDm+//Xb48Y9/HH7zN39zoUD4vd/7vTA/P18a/z1aPBw6dCi888472XmRZBteqqBEf0dy2hSUkOTKbBNBSUKuwbtuk8IhnoKeXqe/Zs2a8rXh/OK/43PD13/7t387/OIXvyiv4R+dF0m25aUISvR3JKdRQQlJrsw2EZQk5Bq86zYpHJ5++umwY8eOhaIgGu/0EAc6jHd3iL777rvlPEen+au/+qvyvbl5kuRqvRRBif6O5DRat78jSY7bJoKShFyDd90mhUM0/pX1rrvuKm+J+eUvf7m8Jj/+BXX4evz3r371q/K1T37yk2Whcfbs2bF5kGSbXoqgJKq/IzltCkpIcmW2iaAkIdfgXbdp4RCNgxU+8sgj4ZVXXsne5SE+F1976KGHysEQ09dJsk0vVVAS1d+RnCYFJSS5MttEUJKQa/Cuu5LCgSSnyUsZlJDkNCkoIcmV2SaCkoRcg3ddhQPJrisoIdkXBSUkuTLbRFCSkGvwrqtwINl1BSUk+6KghCRXZpsIShJyDd51FQ4ku66ghGRfFJSQ5MpsE0FJQq7Bu67CgWTXFZSQ7IuCEpJcmW0iKEnINXjXVTiQ7LqCEpJ9UVBCkiuzTQQlCbkG77oKB5JdV1BCsi8KSkhyZbaJoCQh1+BdN+5wSbLr5vq31Nz7SLJr5vo3kuTytomgJCHX4CRJkiRJcnptE0FJQq7BSZIkSZLk9NomgpKEXIOTJEmSJMnptU0EJQm5BidJkiRJktNrmwhKEnINTpIkSZIkp9c2EZQk5BqcJEmSJElOr20iKEnINThJkiRJkpxe20RQkpBrcJIkSZIkOb22iaAkIdfgJEmSJElyem0TQQkAAAAAAECFoAQAAAAAAKBCUJKQO4WHJEmSJElOr20iKEnINThJkiRJkpxe20RQkpBrcJIkSZIkOb22iaAkIdfgJEmSJElyem0TQUlCrsFJkiRJkuT02iaCkoRcg5MkSZIkyem1TQQlCbkGJ0mSJEmS02ubCEoScg1OkiRJkiSn1zYRlCTkGpwkSZIkSU6vbSIoScg1OEmSJEmSnF7bRFCSkGtwkiRJkiQ5vbaJoCQh1+AkSZIkSXJ6bRNBSUKuwUmSJEmS5PTaJoKShFyDkyRJkiTJ6bVNBCUJuQYnSZIkSZLTa5sIShJyDU6SJEmSJKfXNhGUJOQanCRJkiRJTq9tIihJyDU4SZIkSZKcXttEUJKQa3CSJEmSJDm9tomgJCHX4CRJkiRJcnptE0FJQq7BSZIkSZLk9NomgpKEXIOTJEmSJMnptU0EJQm5BidJkiRJktNrmwhKEnINviof2RKuuOKKcMWtR/Kvr8jz4cTdm8I1a4v5FvNe87tXh50/zk1HkiRJkuRH3zYRlCTkGnyiwxAk4+fvfmZ8mhaDkvMPbgpr4jzXXhc23bYtbPnK7eHQ+fy0vw6f+uY1xXf+TLh9UniTabcY9tx46/5w7IXM9J33SNiSfN8rrlgTrvz968KG2z6q35kkSZIkPzzbRFCSkGvwiQ4L/j/aELbdtm3M3Y+8MD5Ni0HJkdvWlPPc9MD57Ou/Xk+E3euL7/vfbg/Hsq8XVm3ymS9sGrTXLTeGq3938J2u+OyWcOSlzHs67TAouSZsqLaPLV+5Lqyrzgi64rNFW83l3keSJEmSrGObCEoScg0+0TohyKUISm4dFNhbHsm//mv1x7eHzxTLds03n8q/Hq3aZOGsm+jcU2HvFwZhyee/M/L8R8JhULIlHBl9fu5I2Pbf4vOfCbcfH3meJEmSJNnINhGUJOQafKKNgpJD4an7t4TPV2dOrPnda8Kmu0+E88n053+6P2y5cV34dFlYrwlXfm5T2Hu8Ojvl/LGw+yvXVK8tWgYOZ/aGzw//fWp/2PS5K8vLc4ahwzOP7g3bRs9iWLuuvNTlxOjZG5O+TzXvKz6/Nzwz+nzGI7fG7/f5sPdM/vXSXFBS+Mzdn1/6+S+dCPtvvXFhuQftdiy8sHAGxjNh7+erZZt7Kuy/5Zpw5aeK/39h/2BZzxwKt9949eC5OO/ie1/3lZ3h0JmRs3Gqz1g4q2WZttly6IVwYv/4etzwzWNL1uO4E4KS118I+2+KzwtKSJIkSXI1tomgJCHX4BNtEpR8ak1Ys7Yoqr+2LWz72oZwdVm4rwkbDlQhSPT47WFdnDaOPfLN/WH/N7eEDb8fC/J1YdujRWF//qlw5MFDYWdZXF8Rbvz7Q+FQ8f8jp4vXqjBjzYabw4Y476LYv3r91WHno4N5xxCiLOrj59+2LWz600+X81jzl4cWi/zVBiXnD4VN8bNv2h9eyL0+dEJQ8tS3riufv/ofTgyemzsWbv9s/K6fDtfdsjvs3787bNlwdRkArbvtSLXcVVDyqQ3h5g2xrT4d1hXf++odxXc4fyRsiWdsfOrqhe+95SvXhCvXbggzz1WfW0yzrfyMNeHK6lKgTV8YhExXfHZbODIc+6Va5s98dt3F1+MS80HJCz/eHT4f3+/SG5IkSZJclW0iKEnINfhEh8HCEkfOqFiYpnju9OJ7zxfPx0tUrtgwU4UKw7MLxqd7/bn94cax6SZcejMMMwqv2X5k5IyLyvT/5x8Im8rpR4r34bKuMCh54cCG8v0XHTul+pyFoGTufHhmGBpcsW7h7IoX9t84mO5bo5fxDNtpQ5gpB0GtgpK4fH90ezgyOjDqcLlvrM4uGTrSFsPP+MzXRgKjwmPb15XPL1xCtLAebwz7n1mcbul6zDkMSlKvDNf85V6DuZIkSZLkKm0TQUlCrsEnOiyelwzmunuxYB9OkxbSafgwDC6uHNzJZnFeG8I1ZVG9GGgsG5R8qpiu1tkJw4ChraCkCjA+tenid+BZCB1SPx1u/M4wFDkfHrglPndluO6W0fbYFjb80WD6wfcffo81mTFbngq7q2k/XayjnfefSAKkF8LMhvh65tKXJ3eHq+MyDS/hqbsesw6DksXBXLfdtinc+NnBWT2fvml/eKrWOiNJkiRJ5mwTQUlCrsEnOilYGLVu+LAQdFxZXjKz1J31gpIJBfszD+4Om24s5jMch2PBloKSU7vLQOcz24/lXx+1+pyFu94U7rz7UDgxvBymdDEAufL307YYOLisaDjdhHFR5p4Jh7Z/fnGMkk9dHW5eGBtmmfem33k1bTNxjJLz4dDXPlPON70MiSRJkiRZ3zYRlCTkGnyibQYlL8yEDfH/y91Wt7JpUPLMdz5fjrmx5nNbwt77D4Vjp14ILzx3LOy+Ls6nRlDy6LbBmB3LhAFPffOa4r2fCbf/OP/6mNXnLB8OLHO2x5gXCUqGzr0QTtx/e7iuHBR2Tbh5Jo4pMjxrpcEZJa0GJRMGsCVJkiRJNrJNBCUJuQafaJtBycLYG58JWw5lxvgYuTSjaVCSnf6lB8LNcfrR4n0YiIwNxrp41sPkMOBYuD0OmvpHu8NT2dcTawUlk8cPKV1oj2WCkjhNeknLocFnr9sxGDC28RglbQYlcy+EB24ZnOGzMIAtSZIkSbKxbSIoScg1+ESHxfOSMUq2hd2PVHdBaVJgny6eKy8R+XS45itbqnkNxrIYDRWaBiUndgyK/jWfu3lhntetXRfWlXd7GSneh3etSe8A89li2gnzLv3x7eWApguhwsWsGZS8PvdU2PuFQZAQxxjZUrXtpnj75IVlucjlM/FWvwtjnCR3EUo/408vfteb1QUlI2OU3DJ6O+KbF+/CQ5IkSZJsbJsIShJyDT7RYfGccSEEaFpgnzkUdsZb2C6MqXFluPrGTWH/8cWzTBqPUTL3VNh/y3Cea8KVn9sQdj/6QniqvOxj/CyH8z/dGzZ9rgoKysBmZzj0zImwe/2EecczTv4yFvw3hv11i/26QUk0jjGyY0O4ZmFslThmyY1h03eOXXyckfPHwu6vXBfWlZfbDL7Puj/dEHYeSj43/YwYrty6P5x4aWSaVoKSxOpz3PWGJEmSJFdnmwhKEnINTpIkSZIkp9c2EZQk5BqcJEmSJElOr20iKEnINThJkiRJkpxe20RQkpBrcJIkSZIkOb22iaAkIdfgJEmSJElyem0TQUlCrsFJkiRJkuT02iaCkoRcg5MkSZIkyem1TQQlCbkGJ0mSJEmS02ubCEoScg2e88CBA6XDf3v06NGjR48ePXr06NGjR48eB48ftm0iKEnINThJkiRJkpxe20RQkpBrcJIkSZIkOb22iaAkIdfgJEmSJElyem0TQUlCrsFJkiRJkuT02iaCkoRcg5MkSZIkyem1TQQlCbkGJ0mSJEmS02ubCEoScg1OkiRJkiSn1zYRlCTkGpwkSZIkSU6vbSIoScg1OEmSJEmSnF7bRFCSkGtwkiRJkiQ5vbaJoCQh1+Bdd/v27STZeXP9W2rufSTZNXP9W2rufSTZJXN922psE0FJQq7Bu27cCAGgy9TdmervAHQd/R2APlC3r2timwhKEnIN3nXtSAF0HYUDgL6gvwPQB+r2dU1sE0FJQq7Bu64dKYCuo3AA0Bf0dwD6QN2+roltIihJyDV417UjBdB1FA4A+oL+DkAfqNvXNbFNBCUJuQbvunakALqOwgFAX9DfAegDdfu6JraJoCQh1+Bd144UQNdROADoC/o7AH2gbl/XxDYRlCTkGrzr2pEC6DoKBwB9QX8HoA/U7eua2CaCkoRcg3ddO1IAXUfhAKAv6O8A9IG6fV0T20RQkpBr8K5rRwqg6ygcAPQF/R2APlC3r2timwhKEnIN3nXtSAF0HYUDgL6gvwPQB+r2dU1sE0FJQq7Bu64dKYCuo3AA0Bf0dwD6QN2+roltIihJyDV417UjBdB1FA4A+oL+DkAfqNvXNbFNBCUJuQbvunakALqOwgFAX9DfAegDdfu6JraJoCQh1+Bd144UQNdROADoC/o7AH2gbl/XxDYRlCTkGrzr2pEC6DoKBwB9QX8HoA/U7eua2CaCkoRcg3ddO1IAXUfhAKAv6O8A9IG6fV0T20RQkpBr8K5rRwqg6ygcAPQF/R2APlC3r2timwhKEnIN3nXtSAF0HYUDgL6gvwPQB+r2dU1sE0FJQq7Bu64dKYCuo3AA0Bf0dwD6QN2+roltIihJyDV417UjBdB1FA4A+oL+DkAfqNvXNbFNBCUJuQbvunakALqOwgFAX9DfAegDdfu6JraJoCQh1+Bd144UQNdROADoC/o7AH2gbl/XxDYRlCTkGrzr2pEC6DoKBwB9QX8HoA/U7eua2CaCkoRcg3ddO1IAXUfhAKAv6O8A9IG6fV0T20RQkpBr8K5rRwqg6ygcAPQF/R2APlC3r2timwhKEnIN3nXtSAF0HYUDgL6gvwPQB+r2dU1sE0FJQq7Bu64dKYCuo3AA0Bf0dwD6QN2+roltIihJyDV417UjBdB1FA4A+oL+DkAfqNvXNbFNBCUJuQbvunakALqOwgFAX9DfAegDdfu6JraJoCQh1+Bd144UQNdROADoC/o7AH2gbl/XxDYRlCTkGrzr2pEC6DoKBwB9QX8HoA/U7eua2CaCkoRcg3ddO1IAXUfhAKAv6O8A9IG6fV0T20RQkpBr8K5rRwqg6ygcAPQF/R2APlC3r2timwhKEnIN3nXtSAF0HYUDgL6gvwPQB+r2dU1sE0FJQq7Bu64dKYCuo3AA0Bf0dwD6QN2+roltIihJyDV417UjBdB1FA4A+oL+DkAfqNvXNbFNBCUJuQbvunakALqOwgFAX9DfAegDdfu6JraJoCQh1+Bd144UQNdROADoC/o7AH2gbl/XxDYRlCTkGrzr2pEC6DoKBwB9QX8HoA/U7eua2CaCkoRcg3ddO1IAXUfhAKAv6O8A9IG6fV0T20RQkpBr8K5rRwqg6ygcAPQF/R2APlC3r2timwhKEnIN3nXjRkiSXTfXv6Xm3keSXTPXv6Xm3keSXTLXt63GNhGUJOQanCRJkiRJTq9tIihJyDU4SZIkSZKcXttEUJKQa3CSJEmSJDm9tomgJCHX4CRJkiRJcnptE0FJQq7BSZIkSZLk9NomgpKEXIOTJEmSJMnptU0EJQm5BidJkiRJktNrmwhKEnINTpIkSZIkp9c2EZQk5BqcJEmSJElOr20iKEnINThJkiRJkpxe20RQAgAAAAAAUCEoAQAAAAAAqBCUAAAAAAAAVAhKAAAAAAAAKgQlAAAAAAAAFYISAAAAAACACkEJAAAAAABAhaAEAAAAAACgQlACAAAAAABQISgBAAAAAACoEJQAAAAAAABUCEoAAAAAAAAqBCUAAAAAAAAVghIAAAAAAIAKQQkAAAAAAECFoAQAAAAAAKBCUAIAAAAAAFAhKAEAAAAAAKgQlAAAAAAAAFQISgAAAAAAACoEJQAAAAAAABWCEgAAAAAAgApBCQAAAAAAQIWgBAAAAAAAoEJQAgAAAAAAUCEoAQAAAAAAqBCUAAAAAAAAVAhKAAAAAAAAKgQlAAAAAAAAFYISAAAAAACACkEJAAAAAABAhaAEAAAAAACgQlACAAAAAABQISgBAAAAAACoEJQAAAAAAABUCEoAAAAAAAAqBCUAAAAAAAAVghIAAAAAAIAKQUmG2x9+MvzGpm+Hj33hDpJkQ2P/GftRAEAzbj96JvynrTPhY1/dR5KsYewzY9/ZNoKShHhw/1+33BMOP/1i9QwAoAmx/4z9qLAEAOoTD/T/w18dyBYCJMnJxr6z7bBEUJIQ/xIqJAGA1RH70difAgDq4UwSkly5sQ9tE0FJQjxtHACwevSnAFCf3IE/SbK+bSIoSXBgDwDtoD8FgPrkDvpJkvVtE0FJggN7AGgH/SkA1Cd30E+SrG+bCEoSHNgDQDvoTwGgPrmDfpJkfdtEUJLgwB4A2kF/CgD1yR30kyTr2yaCkgQH9gDQDvpTAKhP7qCfJFnfNhGUJDiwB4B20J8CQH1yB/0kyfq2iaAkwYE9ALSD/hQA6pM76CdJ1rdNBCUJDuwBoB30pwBQn9xBP0myvm0iKElwYA8A7aA/BYD65A76SZL1bRNBSYIDewBoB/0pANQnd9BPkqxvmwhKEhzYA0A76E8BoD65g36S/Cj5P33tQPb5tmwTQUmCA3sAaAf9KQDUJ3fQT5IfFTd8/0R4670Pwqf+/l+zr7dhmwhKEqbrwP5U2Fwsz7rvvVL9v0+8EvZsviN8bNep6v9AxfOPhZu+uiNcVvw2PvbFHeGmh39ZvfBh8UGYffDecNWXis8vluHyL98bZl6tXqrDTw8U77sr7Hmx+v9HGEEJANQnd9DPi/mzcHC+aLxXns68xv56MGw8/WaYuzD4bYX33wz7DuSmu4TedjRsP/temB8uw7uvhu256SZ5/PXiTe+Fg/dnXuug/3HLP4dzb8QfawhvvPt+uOIbB7PTrdY2EZQkXMoD+7lnj4Xt2+4Ma6sCK7pm8z1h64Oziz/kMToUlPz8/vCJYlk3Hn2nemK1CEpWwtzD94TLvrArbP+o/lzfKX4TG+4In9j2w3D4+VfCyRPHwvEPOXCY/+mBYlvfEa6/91SYffnZcPiR2XCueq0WghIAQIbcQf9q3Dk8fLwwF7bflp9m4ENhzzDwn3853DTy2tazH8Qnw757R6dfuZc/Old+zOzPHsq+3lxByUpcfzI22gfh+I/yr3fdtWXIEMK5554OG797Kux88szYdv1heNPse2Ubnzx5Klz/gzNh3/FTYW1muol+xIKS6H++7V8WwpL/b/698H/c/oPsdKuxTQQlCZfmwP6tcPK+veHyYt6XfemucNN9j4WDj58IBx95OGy/467B8xtnwuG3q8kX6EpQ8k44+I0q/Ln1sTDYBa4WQclKmH/8QLj8hjvDnuerJz5izB+599ccMhTb+h3Fdrn54WbhyCiCEgBAhtxB/2osg5LqD3HHH70/O03pvecW92lJULIxFnsX3gx7do9Mv2JHApk3zoVrs9M0VVCyEtc+8WbRaEUR/mD+9W77UNgXi5FkW/5wPRUOvzvYLi/Pvl7Dj2BQEv0vf/0v4cU3Bn9Yf+Wtd8P/fvsD2elWapsIShIuxYF9LO7iZQJrdp3Inzny/MNh/Q13hMu+djgpvjoSlLz2WLi+WM7N345nlbRVAApKPlx+GfbdWqzDn1b//bCIZyI1CB3Ofe+u4jd6IByu/n9pWK4tWtguBSUAgAy5g/7VWAYlb70ZZmPB9uovJv41+9rT8+VZJ8djiFGnuLztTDh+YQUFXBXInDwXq9i2CkBByYfrsTDzRrEOj+deu3SW22jtdfxhbRPLtcXT4WSxCHOzP8u8VtOPaFAS/Y3/8f3w0puDsOTVt9sNS9pEUJLQ/oH982HnV4vC6qs/DLPZy2sGDMOU8UtXuhGUzD24N3zshqJ4vTAbtm64I1x1XxunMwhKPlSGYdeHHJQc//aORmdnfChBybJtIShpgqAEAOqTO+hfjWVQMv9y2PNsvHxm0lkhPx/85fvcmbCnmv6iQcnhlQUdZbEbXg87bzsdjhfHxPPP/jw7XTMFJR+qw7DrQw1KjpaBxNQFJcu2haDkYv4v/+P74eWRsOTj27+fna6pbSIoSWj9wP7pH4a1dcKOC6fC5huKAuzvTlRPRIZByfPh3NGZcO2Xi9eL/3/shh1h7a0z4eDLccc3QizAbpgpdj6/DIfvvmdhsMk44OW1e06Ec/FSuZS3nw37du0Na744mPbyL98ZbvrepDFTcgyCoE/sOV3+b/a+O8PHNtwfjpf/G6cscuNZM8lnXval3GdOKEhfPlXs6O8J64ZtUbjm1gNh5vmkLQrmTj9c7OyrQT+XOF5sz595LGy+dUd5GVQ5z833hj2nB9c3LjJYH5uLVTT3+A/C9SPzXpNbH+GDcO6nD4et2+5c+K7luth1LJSXLY7y2uxYm5TrePM9YfvRke3mvVfCwdH1Gj/35r1h8/eLtqsmyRbhF3nf7A+K14afu2Ayj1rbyWCdrf/+L5e058e/mrTna6fC1v+eWTeTAogXnyjb8ePxNzIy/djvqlrGhTGAirZed8fD4eRr1esLxPW4I2yNHzU6MOy2x8ITy7RF/A2OrvPR10peez7M3HdvuHbj4jQf/+o9YeeJZDsarqPni/WyZ/R3sCv7Oy1/N8WyzV14PRy/ezh9tfwVY9tjm/3DKonzBwDUI3fQvxqHQclN9w0KunP/dnTpdA++GuaL45XDD45MP/L6YJyF14tjvfj/o2FndmcxfH05FwOZeCnCxhjeXJgLW5dMNyhy5/79J+GqH50LJ98a2ZfNvxkOHj6aXMqQL4o/8d2nw8GX5sPc+4O3Rubfej3sezAdQPL+sP7wy2E2ziPL+HdLl2k+u0yDIvnk4/eH65+YC+dG5h2XYc9302U4GK5//OXieGVk4M8LH4S5V86Gjd8YnW5fuPw7p8PMKyPTFczPz4fjP/tZWNNgmlwRfrH3bTw9P/bagKSQ/1Yyj/ffC7Ozp8P6sTFyGqzjB4ttN243CZMCiJt+9vpYew8YX8Yln5ldxuhgPR4/XGxPxXIsbCNvnAv/OLEtHgpb//3Nse1uwOJ2VHvbHK6jB38S9ryUbBsv/SJcn2wb5W+1WLb1ySCycfkH09TcHsvPjYFm8blni+W8yOeuxhiWxMtvIvEMk/j/3HRNbBNBSULbB/Zzh/YuKWry/DLs+1pRtNz8wzBbPTMszD/x5V3h8o1FwfXIiXD86Th45A/D9TEouOHecHD0BJSyANsV1m68I6z9+g/CvjgOSuHMffeENcV8LvvGE8XOcIS3i/kX87msnPepcPzUqXLatUUxuqYoWJf0Mzme/2G4avT7Df//8+r/I5QF3w3F8hWfuW7Xw2GmWr59u+8sC7zxM1HyQcn80QNhzX8/EPYUy3vy5TiY5+Gwsfi+H9twIBweOxnn/vI7r7/7VJh97fUw99qL4WD5OTvCxiNvVRMNiINzxmnX/s0Pw8yJ2XD8xLGw8292FdPuCpt/OjrtYH2s2RjXx96w/cHB8h+ctD7ieBZ/tyOsj9/1xLPhXBz483sHyvb9xGj7xjNx4nq4ZaZcZ8dPzRbzfSzsvOOucNOh4R1dfhlmthWf8eXBdnC4mObw48fK0Gj93YOQqmRJUFLjfW8X7fNIHPvjjrDxkdhW0bcWO+Ta28lgnV1WtM+aL94VNn/v2KB9iu+y+ZZiGb5wZ9g5XMUX3ik+YzbsjM/f8sPi4KD63LdHdlyjvPdW+frJe+8s5nNvmBlOP2zvahk/9uXx9XJT3DZuKNrjhWq6ksF63DjzcFj/xV3h2t2DbXHfT4uFW64t4mvDZf7GsfHXIsW2v+7me8rPP/7862H21LGw/db4vUfXR0G5jnaENcXyltvc47Ph5NODNs39TsvfzeYfhD27iu1u871hZ/x+jzwRjlcB0Gzxevz9rNvzWDhYrN/jRXtvjb+d9Hs37R9aQFACAPXJHfSvxsXgo/qL/JJxQe4P22OC8u6rYeMwcFg2KLk/rP3Ho2Hrc/G598LhHx0N6++NPhI+MfKerGUgM1K0Df+/ZOyUajne/6DYv74XTs6eDXue+EVhUdyWO6lBqLNk+iQoWfuzN8si8OCTT4fN3/1J2Pz4y2E2FqYXiu8ycmbN5YfnyuWYO/t02Fh+l5+XRWnk5M+OjH2vq4oCMk47P/dqsQ89E7Y/fjYcnovHLR+Ek8cfWZhuWGDPF98hvD8fjp+Oy1/45KvhXFkcp2f3xLFbYjDycjHfU+H6OPhoUWyXX7f4XguXTMUzceL7518PM8X8tj96pmyXw3NFof9vx+pPE02Dkhrv+8S3ivZ5Mo5tUhx7PDlc90fC2mHA8K3ie8d5vP9mOFy0+/ZHnw77nh18j/nie1w1/Owm6/gbjxSfcXZQG716tvrMo2HdP+TH3CmX8d7T4XCcz8L0i8u4sA7fmCu/Z/zc4TKGt4ptfywsGazH2dmXw9yFD8K5l4r1U0w/c/zny7TF4DcyXOa5505Xry3+Rupum4N1VCxr8Vq5zT1xJmx+KLbp/GB5k8vpyt/q/Fw4+Eqx3c0X6yBud0+eDVvLgZjvr37LxTK9dC7sKdbv9oX2LraD74+0Z/m5xbqJnzvWTvnPXa3/6/YHFsKS+Pi//c3qLsNpE0FJQtsH9oNLBZJCaQKHd8WiavRMh0FBV4YA6UCvZ35Qnqly05GRyrwshIoi/O9ODDbkEU7es6t4bbyQP/7t4rnMvMtLaUaL2mU4vmdHsVGOhjuD8R1yRdegLYqCbiZtjLfCzF8X33MsJGpwiUN1x514pseAasDNseWKPB923lws2+6RYKEKKZa22eB7jM+j4fqYQNlm8S/71f/Diw+HdXH5l73sZfDZFz0zaUlQ0uR9+WWov51U6yx+/lgwUfD2sfJylrX3ZsKwFi69GbRpsX2n62UYQsUzMqqnFtbjkiCsYpm2aLRdRuYeC9cW84pn2SzQ8Hc6/N1c9rWHl16+V8z/+hsyv6kLp8vL4MZ+hw0/tw3i5wEA6pE76F+No2eIxOJsrDCOlmONFPuZ07EQrhOUjD6XzGtZRwOZ4XOD8R2WFl3VcqTFW/RbZ8vjhfnnTo08nw9Kcg7vuHPy8eFz1aCfY8sVrQbifGlknsMgoVjexYI/Wn2PsXkMCuxyENxvjU5bLMOPBsHM7JMXu+tP1WajbX9/UbAXzyx72UudaaJpUNLofbnp7g9bzxUFeuY7Dy65Gg24mq7jqj1rrOOBE7aJansPc2eTdbgYmJ0bDZOGn7skCKuc2BbRwXvnal56s3TbLKzmv3SbK9q6vBvVm2HfSLAyDEKWBj6F1VllcXnGzn4atsno77Dh57bh//2Pjw4+s+C1d94L//PX/jk7XR3bRFCS0PaBfRtByVhhv0CmAB4WeKNX7wwpXxtdjsF4Ip/49niUUFIV7mPFXY7qcqF0TJJBAb206Bq2xb6XqydGWFoANyhIlwQNk95bPT86aO6pGLLkz/hZurwN18cElnzXkTNKDr4wqVJdPDNkz6mqA8uxZD03eV8uHGiynWTad4HcOqmeW3VQMljGyyZsK4P37A0zC5fgVOtx0hkUE9siMmnbmsRqf6fD5c8Hl4Mz1ka/2yJlfzIayDX83DaInwcAqEfuoH81jl1Ks/sX5R9+RscFGYQn82Hmvvj/SxiU3DYoGtMxSQYFdFp0VctRFHvXj0w79tpYATyhKM65JAyY9N7MMpTjsoSRyxgWXWiP7w6fqwrs0aBlwfoF9JK2HznrY8/3H0ou92kwTTQNShq9LxcOFO+PBfe508nzhVW7x0ttBs81XcdVe9ZZx6UT1mu1Dk8ez52NUr0nXrqy8Fz1uUvCvMoWg5JsUDWc/2h4Mvba+G9wsL2kZ1wNXP9v8csVv/XMbb7LfmJ0O2v4uat1dKySX/0qhP/nwGhY1dw2EZQktH1gP7id6eouvckX35MKsAnFTvpaNWBl/L6TvFjRP390MABt7r3Rax8cD1ryRe6Apa9NKEjjWB533xuuvXnXkvEqFgvb1wfhwJICfHBGyWjRPyg0x+cz7mh7NlwfBXOnHwvb79gb1o6MWzEwaYdXTwwulyheuzxevvHIs2Eu9nejvP1s2FNeElQU+V+Kl7acCufSXCW3DdR+XyYcaLSdLBciXMKgpFrGidtr+d1Gf4PLrceCSW1Rssx3jGPB3HcgXL85Xno0aJulbVSQW0dDMq8t97spB8Md+Zyljryv4ee2QVwGAEA9cgf9q3F8zJHFszo2l/+vbtW7UARWheIlCEoGgcxkBme0DKefUOROfC0/fTnextk3w9y78S/g4ywWo9UlScl3XjijZKToHxSayzHaHssVybnX4jgp58Lx4sAvXu4wznjbX/7//qK6XKLg3flw/OSpcG06jkmNaXIFb/33ZcKB0VtMT2DxOzddx+0EJYN1OHm7LX8vY+PmXCTsmNQWpZPfW2/bLFwulMi8lvutDt160QPtNCip/7mrcTQkefeDC2Hd3iPZ6ZrYJoKShNYP7BsO5jr+V/GGhXmTQmhYXN47W421kHHSyQ0l1aUpX/9BNQ7FuNu/XryWFMCrDkqKtryqaKPLN8+EfXHMj+FyFs+nl67Mn5gZjFFSfL9zcdyLd34Zjt97V7jshrvCvpH2GQQld4adp0e+95gjY1A0XB8n7xuMvRLHjjj89CsL8zx5YHI7zL8Qg6C95fgfH/viXWH7zzOXhsw9Gw5+70BYF4vxG3aFmw6NfKHltoGLvm9yUFJvO+lxUDL3RLgpnhVUjuMyW42LU/jmE2Fj+lnLraPMaxcPSkbGbFniyPbT8HPbQFACAPXJHfSvxvGgpCjQqtP7y3FBqlPxZ382vASkKi5bD0qqS1PeeLUah2Lcw0uCiqZF9NLnLn/o1fKv8+V4G3HMj2pci/XV86PF6NrHB2NWzD13Jlz/rYPh8n84FrZXY7CMfr9hkb04LkvqyFgdjYKS+8PmZ+PnFc+9dC7sfOgnC/McPJ8rfO8Pa79/pii2qzEjLrxXrNP00pCLTDOx4K3zvslByeKYHEtdHFek6Tr+6AQlTbbNpoHFxYOSN8O+kfUx7sg4Qw0/d6XGkGR4i+D3PrgQ/q9/uNjlaPVsE0FJQvsH9pfq9sCrDEoucrnCRanGXhhf3kUGZ5uMXy6wuqCkGnck3lEnbccqjEoL27lD94SPF8/HdRrN3h2nvPRmUlGc0mB9vFMUzsX/h3cDGmX23l0T22GB954Pe+IZRhPuIFRy4fVweFec18ilF3UK3onvy7VDk+3k1xSUrPDSm/x6LJjYFpH8dxys072Da51HqbaDlf9Ol//dDIK+i6zvIQ0/tw3a708B4KNL7qB/NaZByeKZEmfC9fGyl6Io3L5Q3FfFZdtByZJAZtzB2SaZ8StqF9Hpc9W4I2PfrfJfBwPIjhe294frF06jGJC9A8myl22kNghKdlcDlVZ3AxqddvNz8Zg1X/gu+I2fh4PxbyLZOwhV5qapU/BOfF8uHKguvSnWw8TLdhZsuo7bCUpWeunNwrpKndgW0dx7G26bDQOL5YKSi4VEYzb83JX4n2/7l4UzST648KvwmT2ZMWBWaJsIShIuxYH9/OMHymJ8za4Tye1UK55/OKyPZ5MsGdvhUgYl8a/Ru8LSO4LUo7wN8A1F8TYp/KnOkBkNClYXlFSXJt3y8MilSQPK71G0xVhh+87psPnLO8LGo4NObCLD8UFyA2UuocH6ePlwWB//v2SQzcHnXTQoKZidiXd4uch0xbY1tl7rFrzp+6qwaePj1f9HqL+dNA1KqvArs04nMWkbGizj3jCTBhXD9r516WCu+fVYsExbTPqOx3cXz8XlSrahGGSUZxWt4ne63O9mOJhrrbtUNfzcNhCUAEB9cgf9q3FpUFLdlrcodOaqwGSxqK0KxRpBydrybh9FsfT9xecmOfi84v1pYTi0Gr9kcVmaFtHpcz8ZFPfJ94iBSDnYaMFYMbq7+Pz3i2OuJ9Jb/CYOx/DIDZS5xOUK7OS171bjd6TTDj/vYkFJ4XIF8tAl09QseJe8ryroZ59Iw4Zh+8bt4mJhUtN1XAV8r/6iRggTnTD/YZsuufvTvsXBXMcuA1tuPRZObIto7r0Nt80Wg5JhYDl+96EJXuKgJIYk596ILVdUAu9faDUkibaJoCTh0hzYvxVO3rc3XF7M+7KNe8PWkdumxlvAxrE2Lts4s+SuIpc6KClvqVrePnVXuPbuxxYum9kXx1n46t6xS1TGGfwFP3e2xCjlnUhGzgBZXVAynOaOcNXuY+Hky4Pbr8bb+F5+y53hquL5saDkxExRoO4K208POp7lmP/pTHmpS1w3C7eWjevm7+4JV319NLxqsj6q5b/hzrD5kXiZ0IvheHW72quK5R37ri8Wxe6tg9u+xtvKzj0/Gw4+OFNeIrNm9+mqAD4dtn71nnLbKS/jibcaruY3FrAtWc813/fOE2FjbINbZsJMMd25p0+Fk8NkofZ20jQoKbakGLgV6+n6++JtnIs2+vmLyxb8E7eh4TJWtwce3Eb74bAx3sp3wu2B8+uxYLm2mPA94i2myzD0r38YDhfrML5n3567wuVfLrbN4reymt/pskFJwez3B33L5ZvjbbOr7bf47nFsnDV7Rpaz4ee2gaAEAOqTO+hfjbmgZDhoZHkWx7+OPD8sLmsEJcNb+86/9mrY+YOjYeOjZ8JN2btgDAf4XHq2xKLV2CkLf2VvWkQvfW6wzEWR+tLZsPm7cfmq2/jOv1cu91gx+ngs/D4Ixw8nZ5BkHN5aduyWv/EWuq/Mh7k3RtutQVAyXP6i+Dx5Ml6K8fOw/clXy9vFzs3HY9iRtr+/KHbfGtz2dXvR7ut/cCbsiZeOF208/1J1G+E600TTgrfu+6pBgeOlI/se+km4/qGnw+ZyMODC4e2Bi/Y8d/bcwuVVM88Wx0Xz8yPFddN1XI2nM2yjePvkh5Yb8HPy/MdvD1zdbnf2zcFvYkkIdpGgZLm2mPDeRttmw8Bi2aCk+J3d9O/xEwqK5T34ZLX9PvnyYGyc0YGHG35uE//LX/9LePGNwZkkb7/3QfjU3/9rdrrV2CaCkoRLeWA/9+yxsH3bnWHtl4pCq/ic6JrNRRH74Gz+TJNLHZRE4gCUd98T1pVnOQz8+MY7w/V3P7F0wM8h5e14d4StP6/+P4nqspbh5TmrDUriJSPH77snXDUcKPOLO8K1e06Ec+8NBmkdC0ouvDh4f/WdFqzes6S9Xz5RrpuFQThv2BHWFutm+5HRwr3h+njtdNhZzDMWsXGelxdF/NajxevlGQsj3/Wd58PMrr1j20UssG+67/TIcr4eDifr6bIv7Sq+y7EwOxqwLVnPNd9XMH/m4XBT0Y7ldEU7bR9dv7W2k+ZBSbjwy3B4zyAsLOe57bHkrKpxlg0NqmW8atiOxXdYd8cPw/Fy5zrKRYKSgsltMek7fhBmHz4Q1g8/u9h+rrrj4XDytbfKs2ZW8zu9WFASiYMGb751ZIDjYpnX3npg/E5HK+kfVklcFgBAPXIH/asxG5Rkb2cbrYrLOkFJUXRd/8SgiC65MB9mFu74sujYmCjJa2NWl0QMLs9pWkRnnrvtaNj+7PziGHMXPigK01+E678xODNhrBi9rXp/yvA9ydkjn/juL8Lx14rCcuQ4cn5+Phx/8mcjd0ZpEpQU7fSdM+HwayN/2Hv/vXDyiZ+ET5RnLIy0/e5TYeaV8c+O084+e2ZxOetME00L3rrvK7zqRy+H2XiGR6Rop+NHR17/xk/CnrPzYa4MTCqK+Zw7e3YkTGu6jgu/dTocjIFCxfzZM+Ovj7nc/BfX4QITvudFg5LCyW0x4b1Nts1Wg5LoYNDgk2+NbGvF58dLzQ4+OhI8XaKg5D9u+efwwuuDH1sMSX5716HsdKu1TQQlCQ7sPwJceDHM/E1RNI7+hX14FkQ1UOqa3O1uAbSK/hQA6pM76Ocl9LafhZnyr/kjf2EfngVRDWY6f+50zcs9SF7MzYdOlSHJ2pYGbs3ZJoKSBAf23af8C3xu0NeKw393R6MBRAGsDP0pANQnd9DPS2f5F/jcwJql9w8u91hyRg7J1fh/7ngw+3xbtomgJMGBffcpB9a8+Yf5AUKHl+Tc8cTIJTUALgX6UwCoT+6gn5fOnS8Vjf7uq2Fz5rWFS3Lmzo5cUkNy2m0TQUmCA/vuM39iJqwp1uNVux8bDI76WvSVcPLEY2FrDElWeKcfAM3QnwJAfXIH/bx0rn18MLDn3EvnBgOY3hv9Sdj8+LkwuGPwezXu4EJymmwTQUmCA/uPBksGtywsBx/d/Vg4+Vo1EYBLiv4UAOqTO+jnpTQzuGUkDj760rmw9TtCErJrtomgJMGBPQC0g/4UAOqTO+gnSda3TQQlCQ7sAaAd9KcAUJ/cQT9Jsr5tIihJcGAPAO2gPwWA+uQO+kmS9W0TQUmCA3sAaAf9KQDUJ3fQT5Ksb5sIShIc2ANAO+hPAaA+uYN+kmR920RQkuDAHgDaQX8KAPXJHfSTJOvbJoKSBAf2ANAO+lMAqE/uoJ8kWd82EZQkOLAHgHbQnwJAfXIH/STJ+raJoCThNzZ9Oxx++sXqfwCAlRD70difAgDq8Z+2zmQP/EmSFzf2oW0iKEm4/eEnw3/dco+wBABWSOw/Yz8a+1MAQD1uP3om/Ie/OpAtAEiSk419Z+xD20RQkiEe3Me/hMbTxkmSzYz9p5AEAJoTD/SdWUKS9Y19ZtshSURQAgAAAAAAUCEoAQAAAAAAqBCUAAAAAAAAVAhKAAAAAAAAKgQlAAAAAAAAFYISAAAAAACACkEJAAAAAABAhaAEAAAAAACgQlACAAAAAABQISgBAAAAAACoEJQAAAAAAABUCEoAAAAAAAAqBCUAAAAAAAAVghIAAAAAAIAKQQkAAAAAAECFoAQAAAAAAKBCUAIAAAAAAFAhKAEAAAAAACgJ4f8H8vJxjOSulqAAAAAASUVORK5CYII=;" vertex="1" parent="1">
                    <mxGeometry y="50" width="374" height="293.61" as="geometry"/>
                </mxCell>
            </root>
        </mxGraphModel>
    </diagram>
</mxfile>